<svg xmlns="http://www.w3.org/2000/svg" version="1.1" id="Layer_1" x="0px" y="0px" style="enable-background:new 0 0 1023 1023" xml:space="preserve" viewBox="59.49 86.81 945.51 847.56"><style>.st0{fill:#D4242C}.st2{fill:#FFFFFF}.st3{fill:#208548}</style><g id="red_stuff"><path class="st0" d="M568.4,267.4c-5.3,2.5-5.1,12.1,0.6,14c3.8,0.8,5.9-3.3,6.3-6.5C575.7,271.2,572.9,265.8,568.4,267.4z"/><path class="st0" d="M367.6,523.6c2.6-4,5.4-9.3,2.8-14.1c-2.6-3.6-7.5-3.2-11.4-3.2c-12.7,0.2-24.1,7.1-33.8,14.8 c-12.3,11-22.1,25.6-25.7,41.9c13.5-2.3,26.4-7.5,38.3-14.2C349.2,542.5,360.2,534.6,367.6,523.6z"/><path class="st0" d="M618.1,681.1c-5,6.1-7.9,14.1-7.4,22c0.5,8.1,5.8,15.7,13.2,19.2c6.3,2.5,14,2.3,19.6-1.7 c11.3-7.9,19.8-19.1,27.9-30.1c8-11.4,15.4-23.2,22.5-35.2c-16,0.2-32.3,1.6-47.5,7.2C635.6,666.2,625.3,672.1,618.1,681.1z"/><linearGradient id="SVGID_1_" gradientUnits="userSpaceOnUse" x1="516.6282" y1="117.83" x2="516.6282" y2="903.6752"><stop offset="0" style="stop-color:#D4242C"/><stop offset="0.2098" style="stop-color:#CF242C"/><stop offset="0.4672" style="stop-color:#C0242B"/><stop offset="0.6341" style="stop-color:#B2242A"/></linearGradient><path d="M963.2,462.8c-10-13.4-25.5-22-41.9-24.9c-7-1-14.2-0.6-21.3,0.1c3.1-6.3,6.4-12.6,8-19.5 c2.4-9.6,2.5-20.3-2.4-29.2c-4.3-9.5-14.2-14.9-23.7-18c-8-1.8-16.8-1.5-24.3,2.1c-5.7-13.5-11.1-27.1-17.9-40 c-36.5-72.6-96.3-133.2-168.4-170.7c-15.6-8.5-32-15.3-48.7-21.4c-36.2-13.2-74.5-20.8-112.9-22.8c-7,0-13.9-0.4-20.8-0.6 c-10.3,0.8-20.7,0.1-31,1.3c-64.3,5-127.3,26.4-181.4,61.5c-28.1,18.5-54.4,40-76.8,65.2c-23.2,25-42.6,53.4-58.5,83.5 c-25.2,48.5-40.2,102.3-43.4,156.9c-1,15.4-0.6,30.8-0.3,46.2c-6.5,0-13-0.2-19.5,0.1C67.8,533,59.2,542.8,59.5,553 c0.1,5.7-0.1,11.4,0.1,17c1,8.1,7.2,15.5,15.3,17.3c3.7,0.8,7.5,0.7,11.2,1c-2.4,4.8-5.1,9.5-7.5,14.3c-3.5,5.9-6.5,12.2-9.8,18.2 c-2,3.7-4.3,7.4-5.8,11.4c-3.5,8.7,0.4,19.6,8.5,24.3c4.8,3.3,10.9,3,16.5,3c12.6-0.2,25.3,0.4,37.9-0.4 c35.2,86.7,102.4,159.9,185.9,202.1C332.2,872,354,880.1,376,887c39.1,11.8,80.1,17.5,121,16.5c55-0.7,109.8-13.7,159.6-37 c41-19.5,78.8-45.9,110.8-78.2c34.7-34.6,62.6-76,82.3-120.8c2.5-1.4,5.6-0.4,8.4-0.8c11,0,22-3.6,31.2-9.6 c12.1-7.9,20.4-20.9,23.4-34.9c3.8-20.2,7.7-40.3,11.4-60.5c3.2-15.6,5.9-31.3,8.9-46.9c3.9,1.4,7.8,3,12,2.8 c5.8-0.2,12.1,0.6,17.4-2.3c6.7-3.4,11.7-10.7,11.3-18.3C974.4,484.8,970,472.8,963.2,462.8z" style="fill:url(#SVGID_1_)"/></g><g id="white_stuff"><path class="st2" d="M606,206.1c11-5.3,22.6-11.5,35.2-10.7c4.1,0,8.3,1.6,10.8,4.9c3.4,4.5,4.2,10.4,3.5,15.9 c-0.9,5.9-4.3,11-7.3,16c-15.8,23.8-34.6,45.3-52.7,67.4c-2.8,3.9-8.2,2.8-12.3,3.4c-4.7,0.8-9.3-0.5-14-0.8 c-7.6,1.4-15.3,2.2-23,1.2c-6.1-5.3-10.9-11.9-16.5-17.7c-15.5-0.2-31.1,0-46.6-0.1c-1.8,0.1-3.7-0.2-5.4,0.3 c-5.9,5.4-10.7,11.9-16.7,17.2c-4.1,1.6-9.3,1.7-13.1-0.9c1.9-2.8,4-5.4,6.2-7.9c6.7-7.7,13-15.7,19.9-23.2 c19.4-0.1,38.7,0,58.1-0.1c1.7,0.1,3.7-0.2,4.9,1.3c4.9,5.5,9.4,11.2,14.2,16.7c1.3,1.6,3.2,2.4,5,3.2c0.7-1.6,1.9-3.2,0.8-5 c-2.7-7-4.9-14.5-4.3-22.1c0.7-4.7,2.6-9.9,7.2-12.1c5.1-2.6,11.4-3.3,16.9-1.5c4.6,1.4,7.1,6.2,7.8,10.7c0.4,3.3,0.2,6.6,0,9.9 c-0.3,5.1-2.5,9.9-2.4,15c4.1-0.4,6.6-3.9,9.1-6.8c6.2-7.6,11.8-15.7,17.1-23.9c8.5-11.2,16.9-22.4,25.5-33.5 c1.7-2.5,3.9-5.5,3.3-8.8c-0.4-2.1-2.6-2.7-4.1-3.8c-37,16.3-73.8,33.2-110.8,49.6c-0.1-4.3-0.1-8.5,0-12.8 C550,233.1,578,219.7,606,206.1 M568.5,265.6c-5.3,2.5-5.1,12.1,0.6,14c3.8,0.8,5.9-3.3,6.3-6.5C575.8,269.4,573,264,568.5,265.6z"/><path class="st2" d="M349.5,205.4c0.9-6.8,8.6-9.4,14.5-9.5c11.9-0.8,22.9,4.3,33.5,8.9c29.3,13,57.9,27.5,86.2,42.6 c0,4.2,0,8.5,0,12.8c-34.9-15.4-69.6-31.3-104.5-46.8c-3.1-0.9-8.5-2.3-9.5,1.9c-0.4,3.9,1.6,7.5,3.8,10.6 c10.2,14.4,20.5,28.9,30.7,43.4c0.9,0.9,1.6,2.6,3.1,2.6c18.2,0.2,36.5-0.2,54.8,0.2c-3.2,5.1-6.6,10.4-10.9,14.6 c-16.6,0.2-33.3,0.2-49.9,0c-14.1-17.2-28.1-34.4-40.8-52.6C354.9,225.4,348.4,216.1,349.5,205.4z"/><path class="st2" d="M477.5,201.4c2.9-1.9,7.6-0.6,8.8,2.8c1.1,2.4-1.3,5.2,0.4,7.5c0.8,1.3,1.7,2.6,2.6,3.9 c4.1-1.9,8.3-4.1,12.9-3.9c4.7-0.3,9.2,1.6,13.2,3.9c0.8-1,1.6-2,2.3-3c2.7-2.7-0.8-7.2,1.9-9.9c2.5-3.3,8.2-2.7,10,0.9 c1.5,2.4,0.7,5.8-1.5,7.5c-1.7,0.9-3.7,1.1-5.5,1.7c-1.7,1.5-2.7,3.6-4,5.4c4.3,5.8,7.3,13.3,5,20.5c-0.7,1.8-1,4.8-3.5,4.5 c-12.3,0.1-24.6,0.2-36.9-0.1c-2.4-3.1-2.7-7.3-2.6-11.1c0-5.2,3.1-9.6,5.6-13.8c-1.2-1.8-2.3-3.8-3.8-5.4 c-2.4-0.9-5.5-0.8-6.9-3.3C473.5,207.1,474.7,203,477.5,201.4z"/><path class="st2" d="M493.6,250.6c5.9-0.1,11.8,0,17.7,0c0.2,3,0.2,6,0.2,9c-5.9,0.2-11.7,0.1-17.6,0.1 C493.5,256.7,493.5,253.6,493.6,250.6z"/><path class="st2" d="M428.6,291.7c1.5-2,4.3-1.1,6.5-1.4c-3.8,4.8-7.8,9.6-11.9,14.2c-1.6,0-3.2-0.1-4.8-0.1 C421.3,299.9,425.2,296,428.6,291.7z"/><path class="st2" d="M441.6,291.7c1.3-1.9,4-1.1,5.9-1.4c-2.6,4.6-6.5,8.3-9.8,12.5c-1.4,2.3-4.3,1.7-6.6,1.9 C434.2,300.1,438,296,441.6,291.7z"/><path class="st2" d="M467,302.9c2.5-4.3,6.5-7.5,10.2-10.8c14.3-0.5,28.6,0,42.9-0.2c2.3,0.2,5.2-0.6,7.1,1.3 c4,3.6,8.2,7,11.6,11.2C515.7,312.5,490,310.7,467,302.9z"/><path class="st2" d="M465.5,313.2c9.8,2.5,19.5,5.3,29.6,6c12,0.9,24.2,0.7,35.9-2.2c2.8-0.7,5.7-1.4,8.6-1.8 c0,2.9,0.1,5.9,0.1,8.8c-24,8.1-50.7,6.5-74.4-2C465.3,319.1,465.4,316.1,465.5,313.2z"/><path class="st2" d="M466.2,332.7c16,5.5,33.1,7.6,50,6.2c7.5-0.1,14.7-2.7,22-3.8c-0.4,3.3-1.2,6.6-2.3,9.7 c-22,6.5-45.8,5.1-67.4-2.1C467.3,339.5,466.6,336.1,466.2,332.7z"/><path class="st2" d="M128.7,550.9c37.8-70.6,75.6-141.2,113.5-211.8c12.5-0.2,25-0.2,37.5,0c-7.4,15-15.7,29.5-23.5,44.3 c-21.2,39.7-42.5,79.4-63.8,119.1c-8.5,16.2-17.6,32.1-25.7,48.5c9.7,0.1,19.4,0.1,29.1,0c35-60.1,69.9-120.2,104.8-180.4 c4.2-0.2,8.4-0.2,12.7,0c-15,27.5-30.6,54.7-45.8,82.1c-20.4,36.3-40.6,72.6-61,108.9c-6.8,11.4-11.8,24.3-11.8,37.7 c-0.2,6,2.3,12.8,8,15.4c8.3,4,18,3.4,26.8,1.9c11.9-3,23.7-6.1,35.5-9.5c-1.8-4.5-3.6-9-4.2-13.8c-0.8-7.1,0.6-14.2,2.4-21 c4.9-16.8,14.9-31.6,26.4-44.5c11-11.6,23.4-22.2,38-29.1c10.6-5.6,22.5-9,34.5-9.1c8.2-0.1,16.9,0.5,24,4.8 c5.6,3.2,9.5,9.4,9.3,16c-0.3,8.2-4.5,15.6-9.5,21.8c-11.1,13.5-26.4,22.9-42.3,29.7c-14.4,6.4-29.9,9.8-45.5,11.9 c-0.7,13.8,9.1,27.5,22.7,30.6c12,2.8,25,2.6,36.7-1.7c22-9.2,38.5-28.8,47.5-50.4c5.9-13.2,13-25.8,19.4-38.8 c7-14.6,14.6-29.5,15.4-46c3.3,0.6,6.7,1.4,9.4,3.7c6.6,5.3,11.9,13.3,11.4,22.1c-0.3,13.2-6.3,25.1-11.3,37 c10.1-13.3,20.2-27.3,34.7-36.2c9-5.9,21.2-5.9,30.8-1.4c14.5,8.2,19.3,28.2,12.7,43c-7.4,16.8-16.6,32.8-24.3,49.5 c-2.9,7-6.5,14.2-5.7,22c0.1,3.2,3.8,4.8,6.6,4.5c6.2-0.5,11.1-5,15.5-8.9c10.1-9.9,17.8-21.9,25-34c10.3-19.5,21.4-38.6,32.2-57.8 c0.5-1,1.2-2.1,0.6-3.2c-1.4-4.1-3.7-8-3.9-12.5c-0.7-9.1,1.2-19,7.9-25.6c6.2-5.7,14.8-8.4,23.1-8.1c0.2,13.1,2.2,26.5,7.8,38.5 c4.1,9.4,10.1,17.8,15,26.8c4.2,7.4,3.9,16.3,2.3,24.4c-2.6,10.1-7.3,19.4-12.4,28.5c-4.3,7.7-9.6,14.8-12.8,23.1 c-0.9,2.4-1.5,5.5,0.4,7.5c3.7,1.9,8.3,1.7,12-0.1c4.5-2.3,8.1-5.8,11.7-9.3c7.8-8.1,14.2-17.4,20.1-27c2.7-4.3,4.9-8.9,7.9-13.1 c2.3-3.1,3.2-6.8,4.6-10.3c4-11.2,9.5-21.9,14.4-32.8c6.1-13.3,13.2-26.3,17-40.5c10,2,17.2,10.9,19.7,20.4 c1.4,7.8-1.2,15.5-4.3,22.6c-7.2,17.2-15.9,33.8-23.1,51c-2.4,6.2-4.2,12.6-5.2,19.1c-0.8,5.8,0,12.4,4.5,16.6 c4.7,4,11.4,5,17.2,3.6c6.6-2.8,11.7-8.2,16.4-13.4c10.2-12.3,19-25.8,25.6-40.3c9.1-19.5,18-39.2,25.9-59.2 c4.1-10,8.4-19.9,11-30.4c8.5,2.1,15.3,8.7,19.1,16.4c3,6.2,1.4,13.3-0.3,19.7c-4,14-9.5,27.5-15.5,40.8 c-14.1,31.1-31,60.9-48.8,90.1c20.3-8.3,36.8-23.6,50.9-40c8.5-10.3,15.8-21.6,22.2-33.2c3-0.1,6.1-0.1,9.1,0 c-6.2,14.2-15.1,27-24.5,39.2c-17.2,21.3-39.2,39.9-65.6,48.5c-2.1,0.6-3.5,2.4-4.7,4.1c-8.9,13-18.4,25.5-28.5,37.5 c-10.1,11.5-20.6,22.9-33.2,31.8c-7.5,5.4-15.5,10.5-24.8,11.9c-10.4,0.9-21.3,0-30.8-4.7c-8.1-4.2-15.5-11-18-20 c-3-9.8-0.6-20.5,4.9-29c6.5-9.5,15.8-16.9,26-22c17.9-9,37.8-13.5,57.8-14.6c8-0.7,15.9-0.6,23.9-0.8c5.3-8.5,9.5-17.6,14.5-26.3 c-4.4,3.4-8.6,7.2-13.9,9.1c-5.1,2.1-10.8,0.9-16.2,0.4c-9.5-1.1-19.1-4.7-25.3-12.4c-6.4-7.5-7.6-17.9-7.1-27.4 c-8.8,13.3-18,27-31.2,36.4c-7.9,5.7-18.5,4.7-27.1,1.4c-6.3-2.3-10.7-8.3-12-14.8c-0.4-6-0.3-12.1,1.7-17.8 c4.1-11.7,8.9-23.1,12.5-35c2.3-8,3.7-17.3-0.8-24.9c-3.5-5.5-7.5-10.7-11.7-15.7c-6,9.6-11,19.8-16.8,29.5 c-6.3,10.3-10.9,21.5-17,31.9c-6.2,11.1-13.2,21.8-21.3,31.7c-6.6,6.9-13.5,14.5-23,17.2c-7,1.2-14.4,0.2-20.8-3 c-4.7-2.2-7.7-6.6-9.9-11.1c-4.5-11.9-2.3-25,0.7-37c3-10.6,7-20.8,11.1-31c4.4-10.7,10.1-21.2,10.6-33c0.2-2.6-0.5-6.6-3.8-6.5 c-6.4-0.4-11.5,4.4-15.7,8.6c-14,14.6-24.2,32.3-34.2,49.7c-9.3,16.7-18.1,33.7-26,51.1c-1.5,3-1.9,6.6-3.8,9.4 c-3.7,2.8-8.6,3.2-13.1,3.4c-4.3-0.1-9.4-0.8-12.4-4.2c-1.4-10.5,0.6-21.1,3.1-31.3c-10.2,11.3-21.9,21.7-36.2,27.6 c-18,7.5-38.1,9.2-57.3,6.7c-6-0.9-12-2.5-17.4-5.2c-3.4-2.1-7.3-0.1-10.8,0.7c-13.2,3.6-26.3,7.6-39.8,10.2 c-11.7,1-24.4,1.8-34.9-4.5c-9.1-5.1-14-15.5-14.5-25.6c-0.2-12.3,2.8-24.4,7.8-35.6c-9.7,0-19.4-0.1-29.1,0.1 c-13,23.8-25.5,47.9-38.6,71.6c-12.4,0.2-24.8,0.2-37.2,0c5.6-12.1,12.5-23.4,18.5-35.3c6.5-12.1,13-24.3,19.6-36.4 c-13.5-0.1-27.1,0.1-40.6-0.1c0-4.8,0-9.6,0-14.4C96.5,550.8,112.6,551.2,128.7,550.9 M325.3,519.4c-12.3,11-22.1,25.6-25.7,41.9 c13.5-2.3,26.4-7.5,38.3-14.2c11.4-6.4,22.4-14.3,29.7-25.3c2.6-4,5.4-9.3,2.8-14.1c-2.6-3.6-7.5-3.2-11.4-3.1 C346.3,504.8,335,511.7,325.3,519.4 M646.5,660.7c-10.8,3.7-21.1,9.6-28.3,18.6c-5,6.1-7.9,14.1-7.4,22c0.5,8.1,5.8,15.7,13.2,19.2 c6.3,2.5,14,2.3,19.6-1.7c11.3-7.9,19.8-19.1,27.9-30.1c8-11.4,15.4-23.2,22.5-35.2C677.9,653.6,661.6,655,646.5,660.7z"/><path class="st2" d="M473.5,355c6.2,0.9,12.3,2.7,18.6,3.3c12.8,1.2,25.8,0.8,38.5-1.6c-3.4,6.5-8.9,11.9-15.1,15.7 c-9.2,5.4-21.6,4.1-29.8-2.6C480.7,365.6,476.1,360.9,473.5,355z"/><path class="st2" d="M871.4,386.4c5.6-1.2,11.5,1.3,15.8,4.8c4.5,3.9,4,10.5,3.3,15.8c-2.2,11-8.7,20.5-14.9,29.6 c-3.9,7.3-9,15.1-17.3,17.9c-9.5,2.8-21,2.6-28.7-4.3c6.9-8.1,11.4-17.8,16.4-27.1c4.4-9.1,9.2-17.9,14.5-26.4 C863.4,392.5,866.2,387.5,871.4,386.4z"/><path class="st2" d="M888.4,463.4c5.9-4.6,13.3-6.8,20.7-7.5c11.4-0.8,22.8,3.6,31.6,10.7c8.5,6.8,12.9,17.8,12.8,28.5 c-2.9,0.2-5.8,0.2-8.8,0.1c-0.6-8-2.2-17.4-9.6-22.1c-3.8-2.9-9.3-1.9-12.4,1.6c-4.6,3.9-5.4,10.2-6.4,15.8 c-4.3,22.7-8.6,45.5-12.8,68.2c-3.2,16.9-6.3,33.9-9.6,50.8c-1.1,7.6-3.2,15.3-8,21.3c-10.1,13.2-29.4,16.7-44.5,11.2 c-7-2.7-13.8-6.7-18.7-12.5c-4.4-5.8-7.8-12.9-8-20.3c2.8,0,5.6,0,8.4,0c1.3,5.9,2.5,12.5,7.4,16.5c2.8,2.7,7.2,4,10.9,2.5 c4.1-2.1,7.3-5.9,8.3-10.4c1.4-5.8,2.2-11.8,3.4-17.6c6.3-33.6,12.7-67.3,19-100.9c1.5-7.1,2.2-14.4,5.1-21.1 C879.5,472.5,883.4,467.4,888.4,463.4z"/><path class="st2" d="M305.4,755.3c8.2,5.2,18.4,9.5,22.5,19c4.4,9.3,0.4,21.1-8.1,26.5c-6.9,4.8-16.6,4.6-23.7,0.3 c-4.8-2.8-9.6-5.8-14.1-9C289.6,779.8,297.5,767.5,305.4,755.3 M286.4,791.4c3.9,2.7,7.8,5.4,12,7.6c4.4,2.4,9.6,2.4,14.4,1.6 c8-2.1,13.5-10.3,13.7-18.4c-0.3-5.9-3.3-11.7-8.2-15.2c-3.7-2.7-7.6-5-11.4-7.5C299.6,769.9,293.2,780.8,286.4,791.4z"/><path class="st2" d="M615.5,790.6c6.2-6.1,17-6.1,23.1,0.2c4.8,5.4,7.8,12.3,8.7,19.5c0.8,6.9-1.7,14.7-7.9,18.4 c-4.7,3.1-10.8,2.6-16.1,1.6c0-0.7,0.1-2.1,0.1-2.8c5.4,0.3,11.8,1.6,16.2-2.6c6.2-5.9,4.8-15.8,2.1-23.1c-1.5-0.5-1.3,1.4-1.8,2.3 c-2.6,10.8-18.8,15-26,6.4C608.9,804.8,609.9,795.4,615.5,790.6 M623.4,789.5c-2.2,0.5-4.3,1.6-5.8,3.2c-5.2,4.8-4.3,14.8,2.1,18 c8.2,4.3,19.9-3.1,18.5-12.5C637.4,791.4,629.7,787.3,623.4,789.5z"/><path class="st2" d="M331.1,817.3c-4-9.8,3.3-22.5,14-23.4c7.1-1,14.6,4.2,15.9,11.3c0.9,4.3,0,8.9-2.5,12.5 c-7.8-3.7-15.5-7.4-23.3-10.9c-2.3,0.1-1.5,2.8-1.7,4.4c-0.6,5.5,3.1,10.7,8.2,12.5c3.8,1.6,8,0.5,12,0.1c0,0.6-0.1,1.8-0.1,2.4 C345.3,829.8,334.3,825.9,331.1,817.3 M341.6,797.9c-2.6,1.2-4.4,3.5-6.3,5.6c6.9,4.1,14.4,7.2,21.8,10.4c0.7-3.7,1.4-7.8-0.4-11.2 C354.1,797.2,346.8,795.2,341.6,797.9z"/><path class="st2" d="M583.2,801.4c5.3-2.8,12.9-3.4,17.2,1.5c3.6,3.4,4.1,8.9,2.6,13.5c-3.4,9.4-10.1,17.1-14.3,26.2 c7.9-1.9,15.5-4.7,23.4-6.8c0.2,0.7,0.8,2,1,2.7c-5.4,2-11,3.4-16.5,5.2c-4.5,1.1-8.8,3.2-13.4,3.4c0.8-4.7,4.2-8.3,6.4-12.4 c3.7-6.4,8.4-12.4,10.5-19.6c1.4-4.5-0.6-10-5-11.9c-4.2-1.9-9.2-0.5-12.6,2.4c-2.4,2.3-3.7,5.4-4.9,8.4c-1-0.2-2-0.4-3-0.5 C576.1,808.8,578.4,803.6,583.2,801.4z"/><path class="st2" d="M374.3,805.3c0.9,0.3,1.8,0.7,2.6,1c-0.6,2-1.1,3.9-1.7,5.9c4.9-2.5,10.6-4.6,15.9-2 c9.8,3.8,12.3,17.3,6.2,25.3c-4.4,6.5-13.7,8.9-20.5,4.9c-4-1.7-5.6-6-8-9.2c-1.7,5-3.1,10.1-5,15c-0.9-0.3-1.9-0.5-2.8-0.8 C365.3,831.9,369.6,818.5,374.3,805.3 M380.5,812.6c-5.6,1.9-9.6,7.7-9.2,13.6c-0.5,8.1,8,14.9,15.8,12.9 c8.5-2.1,12.9-13.1,8.8-20.7C393.1,813,386.1,810.4,380.5,812.6z"/><path class="st2" d="M542.1,812.3c6.8-5.7,18.2-4.9,23.5,2.4c4.6,6.5,5.8,14.7,5.1,22.5c-0.8,6.1-3.9,12.3-9.5,15.2 c-5.7,2.7-12.6,1.8-18.1-1.1c0.1-0.7,0.4-2.1,0.5-2.8c5.4,2,11.9,4.2,17.2,0.7c6.9-4.9,7.5-14.5,6.3-22.2c-2.5,2.9-4.4,6.6-8,8.3 c-6.7,3.5-16.3,2.1-20.4-4.6C534.9,824.8,536.8,816.5,542.1,812.3 M549.5,811.8c-7.2,1.3-11.3,9.8-8.2,16.3 c2.1,3.8,6.4,6.5,10.9,5.9c7.4,0.4,14.5-7.3,12.1-14.7C562.4,813.2,555.4,810.4,549.5,811.8z"/><path class="st2" d="M453.4,811.6c1.1,0,2.3,0.1,3.4,0.1c0.1,1.4,0.1,2.8,0.2,4.2c-1.2,0-2.5,0-3.7,0 C453.3,814.5,453.3,813.1,453.4,811.6z"/><path class="st2" d="M513.1,817.4c3.6-1.7,7.1-3.7,10.9-4.7c0.3,0.2,1,0.7,1.3,0.9c0.8,14.5,2.9,28.9,3.5,43.5 c-1-0.1-2.1-0.1-3.1-0.1c-1-13.5-2.3-26.9-3.5-40.3c-2.8,1-5.6,2.2-8.4,3.4C513.7,819.3,513.3,818.1,513.1,817.4z"/><path class="st2" d="M409.2,837.3c1.2-6.6,2.6-13.1,3.9-19.7c0.7,0.1,2.2,0.2,2.9,0.3c-0.7,7.2-3.1,14.1-3.7,21.3 c-0.5,4.2,2.1,8.3,6.1,9.6c5.9,2.6,13.4-1,15-7.2c1.5-6.4,2.5-12.8,3.9-19.2c0.7,0,2,0,2.7,0.1c-1.1,10.5-3.7,20.8-5.8,31.1 c-0.7,0.1-2,0.3-2.7,0.4c0.1-1.8,0.2-3.6,0.3-5.5c-4.9,4.8-12.8,5.1-18.2,1.1C409.9,846.9,408.2,841.8,409.2,837.3z"/><path class="st2" d="M452.4,824.4c0.8,0,2.2,0,3,0c-1,10.5-2.4,21-3.5,31.6c-0.8,0-2.3,0.1-3.1,0.1 C449.9,845.5,451.1,835,452.4,824.4z"/><path class="st2" d="M470.7,826.8c5.7-2.6,12.2-0.5,17.3,2.4c-0.2,0.6-0.7,1.9-1,2.5c-4.6-1.8-9.9-4.7-14.9-2.5 c-2.8,1.1-3.8,4.7-2.3,7.1c4.9,4.7,13.3,3.8,17.3,9.7c2.4,4.4-0.3,10.4-5,11.9c-6.5,2.1-13.9-0.1-18.9-4.5c0.6-0.7,1.3-1.3,1.9-2 c4.8,3.1,11,6.2,16.7,3.4c3.2-1.4,4.2-6.5,1.1-8.6c-4.8-3.5-11.8-3.3-15.8-8.1C463.9,834.5,466.6,828.6,470.7,826.8z"/></g><g id="green_stuff"><path class="st3" d="M654,120c-36.1-15.1-74.1-25.5-112.9-30.1c-32.9-3.9-66.3-4.2-99.3-0.4c-64.7,7.2-127.5,29.8-182.1,65.3 c-28.3,18.7-54.9,40.1-77.9,65.1c-41,43.1-72.5,95.1-92.1,151.2c-16.5,47.1-24.5,97.2-23.5,147.1c4.7-1.1,9.5-1.8,14.3-2.3 c-0.4-28.7,2.4-57.4,7.9-85.6c14.1-71.7,48.1-139.4,97.3-193.4c16.3-18.1,34-34.9,53.4-49.6c27.9-21.8,58.7-40,91.3-53.7 c89.3-37.9,192.2-42.3,284.4-12.4c17.5,6,34.9,12.4,51.6,20.5c20.6,10.3,40.9,21.7,59.6,35.3c62.3,44.1,112,106,141,176.6 c5.3,0.1,10.6,0.5,16,0.8c-12.8-32.6-29.9-63.6-50.5-91.9C787.4,199.9,725,150.1,654,120z"/><path class="st3" d="M715.2,852.2c-20.6,14-42.9,25.4-65.7,35.4c-48.2,20.1-100.2,31.9-152.5,32.2c-8.7,0.8-17.3-0.1-26-0.2 c-54.2-2.1-107.8-15.7-156.7-38.8c-20.3-10-40.3-21-58.7-34.3c-61.1-42.5-110.2-102-140-170.2c-5.2-0.2-10.4-0.2-15.6,0 c39.2,93.3,113.5,171.2,204.5,215.4c63.6,31.2,135.3,45.8,206,42.1c52.9-2.3,105.1-15.3,153.4-37c22.6-10.6,44.6-22.5,65-36.9 c64.8-44.5,116.9-107.3,148.3-179.4c-5.5,1.6-11.1,2.3-16.7,2.9C828.8,751.6,778,810.9,715.2,852.2z"/><path class="st3" d="M966.2,353.2c-21.4,0-38.8,17.4-38.8,38.8s17.4,38.8,38.8,38.8c21.4,0,38.8-17.4,38.8-38.8 S987.6,353.2,966.2,353.2z M966.2,424.5c-17.9,0-32.4-14.5-32.4-32.4s14.5-32.4,32.4-32.4c17.9,0,32.4,14.5,32.4,32.4 S984.1,424.5,966.2,424.5z"/><path class="st3" d="M972.1,392.7c2.5-1.3,5.4-2.5,6.8-5.1c3.2-5.1,1.3-12.9-4.2-15.5c-5.4-2.9-11.7-2-17.6-2 c-2.1,0.3-4.6,0-6.2,1.6c-0.2,14.1-0.1,28.2,0,42.3c2.3,0,4.6,0,6.9-0.2c-0.1-6-0.2-12,0.1-18c4.3,0.3,10.1-1,12.7,3.5 c2.3,4.2,1.7,9.3,3.6,13.6c1.8,2.2,5.1,0.7,7.6,1.1c-1.8-4.9-2.1-10.2-3.6-15.2C977.2,395.8,974.6,394.1,972.1,392.7z M970.6,388.2 c-3.7,2.8-8.6,2-12.9,2c-0.1-4.9-0.1-9.8,0.1-14.7c4.9-0.3,11.5-0.9,14.5,4C973.4,382.3,973.5,386.4,970.6,388.2z"/></g></svg>