<svg xmlns="http://www.w3.org/2000/svg" viewBox="0 0 555.26 300.7"><defs><style>.cls-2{fill:#fff}.cls-3{fill:#3466af}</style><radialGradient id="radial-gradient" cx="269.27" cy="129.23" r="204" gradientUnits="userSpaceOnUse"><stop offset="0.16" stop-color="#336fb6"/><stop offset="0.47" stop-color="#316bb3"/><stop offset="0.8" stop-color="#295ea9"/><stop offset="1" stop-color="#2353a0"/></radialGradient><radialGradient id="radial-gradient-2" cx="268.58" cy="247.72" r="279.8" gradientUnits="userSpaceOnUse"><stop offset="0.07" stop-color="#92c02a"/><stop offset="0.08" stop-color="#91bf2a"/><stop offset="0.34" stop-color="#65aa2f"/><stop offset="0.57" stop-color="#459a33"/><stop offset="0.77" stop-color="#329035"/><stop offset="0.91" stop-color="#2b8d36"/></radialGradient></defs><g id="Layer_2" data-name="Layer 2"><g id="Layer_1-2" data-name="Layer 1"><path d="M485.29,65.46c-37.36-31.74-82-47.82-129.32-57a449.69,449.69,0,0,0-180,1.24c-32.86,6.86-65,17.86-93.84,35.21A241.17,241.17,0,0,0,58.25,61.29c-21.78,16.95-39.4,37.37-45.09,65.46-6.06,29.88,3.39,55.34,22.16,78.63,6.39,7.92,13.59,10.6,22.93,10.87,52.46,1.43,104.38,7.94,156,16.75,2.85.48,5.72.72,8.57,1.08l1-2.11-48-29.72c12.66-2.92,26.71,1.65,41,13.78,5.18,4.42,14.13,13.34,31.85,30.3L230.32,208l2-1.44c6.15,8.83,12.3,17.66,18.79,27V215.15c.64-.43,1.31-.87,2-1.32,3.13,4.12,6.27,8.23,10.15,13.31,5.6-10.7,10.19-19.49,15.1-28.84C293.7,205.07,298,219.41,306.17,233c5.52-5.45,10.43-10.31,15.36-15.2,2.35-2.29,4.45-4.88,7-6.84,3.78-2.87,7.92-5.29,11.92-7.92,1,5.36,3.54,10.94,2.75,16-1.12,7.37-4.64,14.38-7.13,21.54,15.53-11.42,30.9-22.69,46.26-34,.17.46.36.91.55,1.37q-17.7,24.27-35.39,48.49c.69.69,1.41,1.36,2.13,2.06,1.89-.41,3.82-.7,5.69-1.27,42.37-13,84.66-26.33,127.22-38.82,8.73-2.59,15.41-6.35,21-13.48,13.38-17,23.07-35.37,23.62-57.44C528.07,112.68,510.52,86.88,485.29,65.46ZM60.86,73.91c28.48-25.92,62.56-41,99.59-49.57C242.62,5.33,324,7.22,404,35.71c5.29,1.86,10.34,4.4,15.49,6.63-126-29.49-247.8-28.27-365,39C57.15,78.17,58.78,75.8,60.86,73.91Zm26.57,119c-4.15,5.33-12.16,8.45-19,10.67-6.7,2.2-13.48.53-16.88-8.3,17.14-1,24.3-13,30.47-25.81a142.34,142.34,0,0,0,14.27-63.78c0-3.35-1.15-6.68-2-11.11-9.86,4-18.09,3.59-24.43-4.33C67.2,86.9,66.55,83.5,71.63,82c18.93-5.77,38.06-10.5,57.87-4.78,6.15,1.77,12.19,4.59,12.31,13.73-2.23-.47-3.69-.5-4.79-1.1-6-3.25-8.14-1.29-9.55,5.15-4.31,19.36-7.56,39.28-14.7,57.63C107.1,167.16,97.12,180.37,87.43,192.89Zm96-15.35c-8.78,2.54-15.79.39-19.15-5.43-8.13,2.59-15.19,6.27-22.52,6.82-11.46.86-18.74-7.35-18.91-18.88-.36-23.1,17-43.52,40.43-45.6,9.86-.88,20,1.18,30,2.49,5.62.74,6.77,4,4.52,9.65-4.07,10.17-7.2,20.7-10.48,31.18-.77,2.47-.19,5.37-.79,7.93C185.63,169.67,191.37,175.27,183.45,177.54Zm87-38.63c-1.84,24.35-19.65,40.69-40.14,40.65-15.53.07-25.54-2.52-30.52-14.17-5-11.83-.93-29.47,9.63-39.26C222.51,114,238.19,111.2,255,115.84,265.74,118.76,271.29,127.86,270.48,138.91Zm67.76,10.32c-2.11,8.76-3.76,17.62-5.89,27.62-9.62,3.88-15.89,2.37-21.13-6.13-4.81,2.3-9.46,5-14.41,6.8-7.73,2.85-15.35,2.54-21.76-3.33-6.1-5.6-4-12.66-2.49-19.22,2-8.66,4.57-17.16,6.87-25.75a20.08,20.08,0,0,0,.67-3.49c.89-10.25,3.52-12.55,12.93-11.21,8.61,1.22,11.1,5.37,8.54,15.66-1.43,5.76-2.81,10.37-6.41,22.16-.23.74-1.94,6.51-.11,10a6.21,6.21,0,0,0,2.74,2.87,5.46,5.46,0,0,0,2.18.51c2.53.13,6.07-1.25,8.88-4.27,1.06-1.15,1.74-2.23,4.23-8.07,1.63-3.85,2.43-5.77,3.6-8.85a140.43,140.43,0,0,0,5.61-18.18c.27-1.17.52-2.34.75-3.52,1.68-8.61,6-9,12.33-8.54,6.77.48,11,3.78,9.4,11C343,133.34,340.2,141.19,338.24,149.23Zm69,27.48c-9.07,4.38-14.74,3.4-22-5-5.79,2.34-11.32,5.53-17.25,6.82-16.83,3.61-28.32-8-24.78-24.75,2.8-13.16,8.81-24.63,19.94-32.74,10.7-7.83,22.33-10.87,37.41-4.36,1.53-12.49,2.85-23.17,4.36-35.42,4.69-2.23,12.18-3.5,17.16,1.41,3.16,3.09,4.19,10.46,3.16,15.27-3.33,15.63-8.38,30.9-12.11,46.46C410.64,154.61,409.3,165.07,407.24,176.71ZM491,127.31c-6.06,14.38-13.14,28.72-10,45.26.23,1.24-.94,3.44-2.11,4.18-7.06,4.53-18.05,1.34-22-6.46-3.09,2.13-5.39,4-8,5.44-7.75,4.28-15.77,5.26-23.74.67-8.14-4.7-9.21-12.47-8.73-20.88,1.17-20.63,19.05-39.18,41.26-41.14,9.26-.84,18.86.91,28.19,2.18C492.16,117.42,493.69,120.84,491,127.31Z" style="fill:url(#radial-gradient)"/><path class="cls-2" d="M51.52,195.25c17.14-.95,24.3-13,30.48-25.8a142.74,142.74,0,0,0,14.27-63.78c0-3.35-1.15-6.69-2-11.12-9.86,4-18.09,3.6-24.43-4.31-2.67-3.33-3.31-6.73,1.76-8.27,18.93-5.77,38.05-10.52,57.87-4.78,6.14,1.78,12.18,4.59,12.31,13.74-2.23-.49-3.68-.5-4.8-1.11-6-3.24-8.12-1.29-9.55,5.14-4.31,19.38-7.55,39.29-14.69,57.64-5.67,14.56-15.64,27.76-25.35,40.29-4.14,5.33-12.16,8.44-19,10.68C61.69,205.76,54.93,204.09,51.52,195.25Z"/><path class="cls-2" d="M422.06,82.69c-5-4.91-12.47-3.64-17.16-1.41-1.51,12.25-2.83,22.93-4.36,35.42-15.08-6.51-26.71-3.47-37.41,4.36C352,129.17,346,140.64,343.19,153.8c-3.54,16.76,7.95,28.36,24.78,24.75,5.93-1.29,11.46-4.48,17.25-6.82,7.28,8.38,12.95,9.36,22,5,2.06-11.64,3.4-22.1,5.87-32.29,3.73-15.56,8.78-30.83,12.11-46.46C426.25,93.15,425.22,85.78,422.06,82.69ZM381,165.12c-2,2.42-6.84,3.74-10.15,3.4-1.86-.19-4.78-4.79-4.71-7.32.38-13.12,3.95-25.47,14.41-34.13,3.85-3.19,9.81-3.81,17.13-6.42C393.93,138.46,391,153.23,381,165.12Z"/><path class="cls-2" d="M419.44,42.33c-126-29.48-247.79-28.27-365,39,2.7-3.16,4.33-5.54,6.4-7.43,28.49-25.92,62.57-41,99.59-49.56C242.62,5.33,324,7.24,404,35.7,409.25,37.58,414.29,40.11,419.44,42.33Z"/><path class="cls-2" d="M485.84,116.56c-9.33-1.27-18.93-3-28.19-2.18-22.21,2-40.09,20.51-41.26,41.14-.48,8.41.59,16.18,8.73,20.88,8,4.59,16,3.61,23.74-.67,2.59-1.42,4.89-3.31,8-5.44,4,7.8,15,11,22,6.46,1.17-.74,2.34-2.94,2.11-4.18-3.16-16.54,3.92-30.88,10-45.26C493.69,120.84,492.16,117.42,485.84,116.56ZM455.71,162c-1.46,3-7.68,3.78-11.73,5.58-1.22-3.59-4.07-7.61-3.3-10.73,2.13-8.76,4.91-17.59,9.07-25.51,3.4-6.49,10-9.81,21.23-7.9C465.72,137.14,461.45,149.92,455.71,162Z"/><path class="cls-2" d="M187.33,157.77c3.28-10.48,6.41-21,10.48-31.18,2.25-5.68,1.1-8.91-4.52-9.65-10-1.31-20.13-3.37-30-2.49-23.41,2.08-40.79,22.5-40.43,45.6.17,11.53,7.45,19.74,18.91,18.88,7.33-.55,14.39-4.23,22.52-6.82,3.36,5.82,10.37,8,19.15,5.43,7.92-2.27,2.18-7.87,3.09-11.84C187.14,163.14,186.56,160.24,187.33,157.77Zm-27,7c-1.73,2.27-6.32,3.9-9.12,3.38-2-.39-4.65-4.89-4.62-7.5.19-13.18,4.12-25.37,14.07-34.46,3.09-2.8,8.28-3.33,12.5-4.88.76.86,1.5,1.72,2.27,2.58C172.83,138.41,169.52,152.72,160.31,164.81Z"/><path class="cls-2" d="M332.36,176.86c-.29,1.35-7.66,2-8.89,2a12.38,12.38,0,0,1-7.62-2.68,17.85,17.85,0,0,1-3-3.06c-1.69-2.13-1.35-2.51-3.89-1.4-4.06,1.79-7.63,4.35-11.9,5.79-5,1.66-10.41,2.25-15.38.67s-9.34-5.59-10.44-10.7a22,22,0,0,1,.4-8.83c2.56-13,6.27-25.75,9.72-38.53.53-2,1.2-4.1,3-5.11a7.78,7.78,0,0,1,3.95-.69,26,26,0,0,1,7.91.91,9.23,9.23,0,0,1,5.87,5c.86,2.2.54,4.68.05,7-1,4.85-2.62,9.59-4.11,14.32-1.42,4.46-2,9.08-3.17,13.6a7.77,7.77,0,0,0,3.38,8.26c9.34,5.89,15.53-11.37,17.83-17.29a136.32,136.32,0,0,0,7-23.3c1.69-8.63,6-9,12.34-8.54,6.77.47,11,3.76,9.39,10.94-1.76,8.08-4.57,15.93-6.52,24C336.13,158,334.47,166.84,332.36,176.86Z"/><path class="cls-2" d="M255,115.84c-16.85-4.64-32.53-1.89-45.59,10.29-10.56,9.79-14.68,27.43-9.63,39.26,5,11.65,15,14.24,30.52,14.17,20.49,0,38.3-16.3,40.14-40.65C271.29,127.86,265.74,118.76,255,115.84ZM248.15,135a152.46,152.46,0,0,1-9.6,30.06c-2.15,5.07-8,8.55-13.36,5.41-3.23-1.92-4.4-7.32-7-12.09,3.81-9.91,6.56-19.65,11.35-28.26,2.05-3.71,8.37-5.05,12.78-7.47C244.41,126.78,248.87,131.37,248.15,135Z"/><path class="cls-3" d="M397.86,121.62c.08,0,.12-.06.12-.08-1.64,9.33-3.61,19-7.35,27.86-2.17,5.15-4.57,10.57-8.6,14.56-2.77,2.74-7.54,5.79-11.58,4.18-5.13-2-4.75-9.12-4-13.58,1.2-6.91,3.28-13.88,7.17-19.78a25.2,25.2,0,0,1,11-9C386,125.16,396.64,122.21,397.86,121.62Z"/><path class="cls-3" d="M470.91,123.6c-1-.27-4.3,10.29-4.61,11.19-2.08,6-4,12.08-6.48,18-1.46,3.46-2.38,8.2-5.46,10.63-2.69,2.13-6.73,2.91-9.81,1.18a7.88,7.88,0,0,1-3.54-9.1,120.44,120.44,0,0,1,5-15.85c1.92-4.72,3.82-10.24,8-13.49C458.47,122.64,465.65,122.16,470.91,123.6Z"/><path class="cls-3" d="M175.08,124a5.18,5.18,0,0,1,.19,1,11,11,0,0,1-.41,3.46c-1.43,6.37-3.07,12.53-4.87,18.79a58.91,58.91,0,0,1-3.2,8.7c-2.51,5.33-6.34,10.52-12.34,12a6,6,0,0,1-7-3.32,13.22,13.22,0,0,1-1-5.33c-.32-13.8,6.73-31.42,20.41-36.85C169.4,121.52,174.09,120.48,175.08,124Z"/><path class="cls-3" d="M219.33,158.26c-.19-5.29,2.42-10.29,4.34-15.2,2.41-6.18,11.51-26.12,20.78-17.28a10.65,10.65,0,0,1,2.94,6.29c1.51,10.75-3.14,25-9.29,33.67-2.35,3.33-6,6.88-10.45,5.4C222.49,169.43,219.52,163.39,219.33,158.26Z"/><path d="M8.27,231.21s143.94,0,241.4,23.88c3.72.92,6.86,7.12,9.87,9.56,3.23,2.61,6.47,5.57,9.35,8.14,0-4-1.34-7.87-2.16-11.75-.37-1.74-.32-7-1.57-8.21L281.29,268c-2.92-2.76,3.14-43.74,2.26-43.57,0,0,1.62-.32,3.23,3.87,1.19,3.11.83,7.57,1.27,10.89,1.37,10.34,2.46,21.35,5.13,31.69.6,2.29,4.05,7.24,1.66,9.37a5.93,5.93,0,0,1-2.67,1.1l-8.32,1.9c.51-.11,8.26,16.18,11.32,17.35,2.47.95,13.21-5.23,15.55-6.14,48.78-18.92,98.37-36.18,148.79-50.22,22.27-6.2,44.76-11.77,67.53-15.77l10.13-24.73s-175.71,41.7-186.36,52.83c2.94-3.07,5.22-8.75,7.74-12.52,3-4.49,6.17-8.86,9.46-13.15s6.68-8.47,10.14-12.6c1.31-1.57,11.22-11.26,10.5-12.84-3.61-7.91-46.76,29.62-50.78,33.7,2.36-2.39,3.64-10.54,4.64-13.82a33,33,0,0,0,1.12-16.53c-.78-3.75-1.73-8.76-6-7.17-3.1,1.15-6.91,6.31-9.41,8.57-7.29,7.3-15.37,13.95-23,20.88,2.17-2-7.48-14.74-8.63-16.46-1.86-2.77-17-22-18.47-19.69,0,0-10.65,17.24-14.53,30.79-1.71-1.81-3.43-3.67-5.16-5.6-2.3-2.56-4.07-5-6.17-7.47a4.65,4.65,0,0,0-2.39,1.2c-1.08,1.49-.24,3.19,0,7.35.09,1.49,0,3,0,4.48,0,2.18.05,3.95.05,6.13,0-2.5-5.73-8.59-7.12-10.62-3.12-4.55-6-9.39-9.35-13.78-4-5.26-5.16,1.88-3.87,5.08,1.71,4.24,5.33,7.49,7.79,11.27a30.88,30.88,0,0,1,4.57,15.54c.06-2.93-10.57-11.69-12.87-14a111.26,111.26,0,0,0-16.32-13.78c-12-8.09-26.59-13-41.14-10.74,16.51,11.73,32.75,24.8,51.77,32.31,0,0-94.68-14.8-154.38-17.06L0,214.12Z" style="fill:url(#radial-gradient-2)"/></g></g></svg>