<svg id="Calque_1" data-name="Calque 1" xmlns="http://www.w3.org/2000/svg" viewBox="0 0 566.93 566.93"><defs><style>.cls-3,.cls-4{fill-rule:evenodd}.cls-3,.cls-5{fill:#007c34}.cls-4{fill:#fd0}</style></defs><path class="cls-5" d="M412.36,17.38V495.03c-7.58,3.14-10.72,4.35-16.02,6.16-11.73,4.01-25.15,7.58-40.1,10.64-13.79,2.83-23.5,4.27-40.96,6.09-3.55,.37-6.53,.67-8.95,.88l-5.94,.53-2.43,.2-2.19,.13-4.78,.24h-1.75c-.41,0-1.45,.08-3.1,.23-1.66,.15-3.96,.23-6.87,.23-2.31,0-5.86-.02-10.65-.08-3.34-.04-5.75-.06-7.21-.06-3.63,0-7.16,.07-10.6,.21l-5.27,.22c-4.1,.17-6.03,.26-7.68,.37l-2.85,.19-2.72,.17-2.65,.15c-.91,.05-1.88,.12-2.93,.21-1.76,.14-2.86,.23-3.34,.26l-2.23,.12c-5.17,.27-12.73,1.27-22.64,2.99-9.79,1.7-17.27,3.15-22.43,4.35-7.22,1.67-14.7,3.79-22.42,6.35-10.45,3.46-20.22,7.77-25.74,11.35l-3.44,2.23-.3,.16h-.4V17.38H412.36Z"/><path d="M471.47,362.32V165.43c-12.63,25.16-34.23,48.47-97.9,63.89-48.24,11.67-110.01,7.62-166.38,17.61-62.98,11.16-114.54,33.14-146.09,86.27v196.87c31.55-53.14,83.11-75.1,146.09-86.26,56.37-9.99,118.15-5.94,166.37-17.61,63.68-15.4,85.28-38.73,97.91-63.88h0Z" style="fill-rule:evenodd;fill:#fff"/><path d="M359.98,321.46s-3.97,8.52-7.86,11.46c-4.04,3.05-8.01,2.95-8.85,2.89-1.12,26.1-17.86,44.78-40.15,44.78-11.23,0-19.79-6.6-19.79-19.16v-1.45c-5.64,9.27-19.29,25.21-31.66,25.42-3.75,.05-10-.58-10-9.79,0-3.85,1.67-9.74,3.13-15.42,1.65-6.46,4.99-17.07,5.2-19.37,.02-.22,0-.42,0-.63,0-1.45-.65-2.5-2.5-2.5-2.75,0-10.51,4.27-16.46,24.17-1.84,6.19-5.41,16.45-7.08,21.03-2.33,6.45-15.87,9.17-18.95,9.17-2.71,0-4.16-.63-4.16-2.51,0-.29,.09-.64,.21-1.04,1.23-4.47,5.64-16.35,7.92-23.53,1.12-3.56,7.49-20.42,7.71-21.67,.09-.52,.21-1.02,.21-1.45,0-1.12-.33-1.88-1.67-1.88-3.54,0-14.17,15.65-25.62,35-9.29,15.72-20.9,26.34-30.43,27.74-13.36,1.97-22.87-22.63-28.89-21.8-1.34,5.62-2.69,11.23-3.97,16.95-.88,4.33-1.77,8.65-2.76,12.91l-1.02,5.03c-.1,.46-.29,.92-.66,1.79-1.33,4.92-17.24,14.11-25.43,16.15-2.12,.52-2.52-.52-2.82-1.52-.17-.59,.04-2.49,.15-2.97,3.06-13.14,6.97-26.33,11.95-43.05-3.26-.54-6.57-.84-6.38-5.71,.22-5.88,6.42-11.46,12.4-12.95,2.74-9.48,4.96-17.75,7.02-23.64l.64-1.86c-14.71,1.35-28.65,6.5-39.58,23.95-.88,1.41-1.89,2.33-2.93,2.57-1.25,.29-3.24-.34-3.56-1.98-.13-.64-.14-1.77,.46-3.24,8.89-21.88,29.78-35.27,50.4-37.14,1.88-4.37,8.12-14.79,21.46-14.79,5.49,0,12.16,2.93,12.16,10.32s-5.31,13.94-16.11,17.17c-2.75,8.23-4.26,15.82-6.92,26.1,0,0,3.08-1.16,4.54-2.4,11.57-9.77,24.38-28.61,32.42-39.68,13.92-19.22,22.4-26.64,55.14-30.04,2.15-.23,4.35-.16,5.96,.06,1.24,.18,1.96,1.32,1.96,2.99s-1.4,3.06-3.92,3.29c-2.39,.22-7.46,1.39-10.54,2.29-10.92,3.22-20.6,9.48-30,24.71-13.32,21.59-22.64,33.61-39.24,40.7-2.57,1.11-2.31,1.05-3.81,1.66,1.27,.43,1.98,.99,3.52,1.94,3.38,2.08,6.79,5.76,9.91,8.18,3.43,2.65,5.28,2.23,6.69,1.78,5.3-1.68,10.31-7.43,16.98-18.04,4.7-7.49,10.38-15.98,16.66-24.37,3.9-5.2,16.24-18.74,29.16-18.74,5.62,0,8.53,2.09,8.53,6.45,0,1.26-1.25,6.05-2.5,9.38,5.62-8.34,16.21-18.12,28.75-18.12,6.67,0,9.16,4.37,9.16,8.12,0,3.13-2.95,13.41-4.31,18.12-1.64,5.62-4.44,16.46-4.44,18.54,0,2.42,.73,3.13,2.5,3.13,3.76,0,15.38-12.56,17.71-20.42,5.46-18.43,19.86-30.62,37.92-30.62,8.51,0,15.2,3.76,18.12,10.84,.3,.73,1.26,1.63,2.08,1.45,4.02-.87,5.9-3.65,7.15-7.63-3.06-1.84-5.16-5.03-4.94-9.91,.29-6.61,4.21-12.77,11.37-12.13,5.62,.5,7.71,4.52,7.71,7.57,0,1.04-.11,1.92-.33,2.96,12.16,0,20.6,.67,20.6,9.37,0,3.15-1.91,10.47-2.93,14.26-.78,2.9-4.4,14.87-4.82,17.18-.08,.38-.21,.94-.21,1.26,0,1.19,.56,1.67,1.88,1.67,1.89,0,3.3-1.45,4.19-2.51,3.56-4.19,16.85-28.43,19.29-42.83-3.8-1.23-6.26-4.73-6.27-9.38-.01-8.02,4.56-14.72,11.31-14.88,5.1-.11,8.93,2.73,8.93,7.75,0,.81-.15,1.64-.33,2.52,17.6,0,23.99,1.4,23.99,10.11,0,5.01-2.24,12.85-3.56,17.75-.96,3.57-3.09,10.9-3.77,14.04-.34,1.61,.54,2.93,2.09,2.93,1.26,0,2.88-.77,4.67-2.3,3.3-2.8,6.44-6.08,9.16-9.63,.66-.88,2-1.81,3.07-1.81,1.85,0,3.43,1.38,3.43,2.9,0,.21-.03,.64-.17,1.1-1.89,6.04-19.23,31.96-37.05,31.96-4.28,0-8.59-3.75-8.59-9.64,0-2.93,2.09-11.11,4.62-18.23,2.22-6.31,5.81-16.72,6.29-19.69,.63-3.98-4.31-4.18-7.75-4.18-7.13,21.57-23.73,66.24-49.48,66.24-2.13,0-9.64-.32-9.64-9.43,0-5.03,3.15-11.76,5.66-19.31,1.27-3.81,5.03-16.94,5.24-19.66,.13-1.82-2.38-2.74-4.57-3.16h0Zm-51.23,46.83c10.34,0,13.75-24,13.75-32.28,0-3.89-.6-9.8-5.42-9.8-10.35,0-13.74,24.01-13.74,32.29,0,3.88,.58,9.78,5.42,9.78h0Z" style="fill:#e30613;fill-rule:evenodd"/><path class="cls-3" d="M61.09,333.2c31.55-53.13,83.11-79.89,146.09-91.05,56.37-9.99,118.15-5.94,166.38-17.62,63.67-15.41,85.27-33.93,97.9-59.1-11.64,46.21-58.6,77.96-134.59,90.14-75,12.01-109.73,.44-185.19,22.67-33.47,9.86-49.46,19.82-65.6,31.72-13.97,10.29-24.99,23.24-24.99,23.24h0Z"/><path class="cls-4" d="M61.09,333.2c31.55-53.13,83.11-75.11,146.09-86.27,56.37-9.99,118.16-5.9,166.38-17.61,64.28-15.61,85.27-38.72,97.9-63.89-21.62,21.42-25.01,39.03-104.58,50.47-63.46,9.12-109.71,.24-177.29,16.44-86.02,20.62-123.22,78.6-128.52,100.86h0Z"/><path class="cls-3" d="M61.09,530.07c31.55-53.14,83.11-70.32,146.09-81.48,56.37-9.99,118.15-5.93,166.37-17.61,63.68-15.41,85.28-43.5,97.91-68.66-21.62,21.42-32.74,35.83-105.64,47.35-63.33,10.01-108.66,2.23-176.22,18.42-86.02,20.62-123.22,79.72-128.52,101.98h0Z"/><path class="cls-4" d="M61.09,530.07c31.55-53.14,83.11-75.1,146.09-86.26,56.37-9.99,118.15-5.94,166.37-17.61,63.68-15.4,85.28-38.73,97.91-63.88-11.63,46.21-58.6,77.96-134.59,90.14-75,12.01-113.11,.53-188.55,22.86-37.29,11.04-46.11,19.63-62.24,31.52-13.97,10.3-24.99,23.24-24.99,23.24h0Z"/><path class="cls-5" d="M490.23,190.23h2.65c1.27,0,2.13-.19,2.59-.56,.46-.37,.69-.86,.69-1.48,0-.39-.11-.75-.34-1.06-.22-.31-.53-.54-.92-.7-.4-.15-1.13-.23-2.19-.23h-2.48v4.02h0Zm-2.15,7.46v-13.29h4.59c1.57,0,2.7,.12,3.4,.37,.7,.25,1.26,.68,1.68,1.29,.42,.61,.63,1.26,.63,1.95,0,.97-.35,1.82-1.05,2.54-.7,.72-1.63,1.13-2.78,1.21,.47,.2,.85,.43,1.13,.7,.54,.52,1.19,1.4,1.97,2.63l1.63,2.6h-2.6l-1.19-2.09c-.94-1.65-1.69-2.68-2.26-3.09-.4-.3-.97-.46-1.73-.47h-1.27v5.65h-2.15Zm5.41-17.13c-1.73,0-3.42,.44-5.07,1.33-1.65,.89-2.93,2.16-3.86,3.81-.93,1.65-1.39,3.37-1.39,5.16s.46,3.48,1.37,5.11c.91,1.63,2.19,2.9,3.83,3.81,1.64,.91,3.35,1.36,5.13,1.36s3.49-.45,5.13-1.36c1.64-.91,2.91-2.18,3.82-3.81,.91-1.63,1.36-3.33,1.36-5.11s-.46-3.51-1.39-5.16c-.92-1.65-2.21-2.92-3.86-3.81-1.65-.89-3.34-1.33-5.07-1.33h0Zm0-2.04c2.08,0,4.1,.53,6.08,1.59,1.98,1.06,3.51,2.58,4.62,4.56,1.1,1.98,1.65,4.04,1.65,6.18s-.54,4.17-1.63,6.13c-1.08,1.96-2.61,3.48-4.57,4.57-1.96,1.08-4.01,1.62-6.15,1.62s-4.19-.54-6.15-1.62c-1.96-1.08-3.49-2.61-4.58-4.57-1.09-1.96-1.64-4-1.64-6.13s.55-4.21,1.66-6.18c1.11-1.98,2.65-3.5,4.63-4.56,1.98-1.06,4-1.59,6.07-1.59h0Z"/></svg>