<svg version="1.1" id="Calque_1" xmlns="http://www.w3.org/2000/svg" x="0px" y="0px" viewBox="0 0 338.724 165.89" style="enable-background:new 0 0 338.724 165.89" xml:space="preserve"><path style="fill:#457A1C" d="M312.094,93.363c0,31.316-63.461,56.697-141.729,56.697c-78.273,0-141.735-25.381-141.735-56.697 c0-31.309,63.462-56.689,141.735-56.689C248.633,36.674,312.094,62.054,312.094,93.363z"/><path style="fill:#DB001B" d="M143.221,133.17c-25.639-7.129-48.263-9.914-67.976-9.914c-8.227,0-15.941,0.489-23.157,1.348 c25.367,15.337,68.862,25.457,118.276,25.457c60.905,0,112.834-15.37,132.878-36.945c-19.378,11.946-54.458,28.284-101.449,28.285 C183.915,141.4,164.322,139.035,143.221,133.17z M51.033,122.262c0.236,0.139,0.484,0.273,0.725,0.41 c-0.237-0.137-0.469-0.273-0.703-0.412C51.046,122.26,51.038,122.262,51.033,122.262z M304.934,110.189 c-0.029,0.034-0.056,0.07-0.085,0.103c0.034-0.038,0.069-0.073,0.102-0.111C304.944,110.184,304.939,110.186,304.934,110.189z"/><path style="fill:#FFFFFF" d="M306.213,109.563h-0.002c-1.112,0.665-1.816,1.087-1.816,1.087 c-18.75,11.932-54.217,29.244-102.602,29.244c-17.757,0-37.228-2.35-58.212-8.18c-25.748-7.16-48.497-9.966-68.336-9.966 c-8.648,0-16.743,0.534-24.295,1.47l-0.905,0.119c0.664,0.426,1.343,0.848,2.034,1.266c7.219-0.858,14.936-1.348,23.166-1.348 c19.713,0,42.337,2.785,67.976,9.914c21.101,5.865,40.694,8.23,58.572,8.23c47.001-0.001,82.086-16.346,101.464-28.295 C304.336,111.943,305.324,110.761,306.213,109.563z"/><g><path style="fill-rule:evenodd;clip-rule:evenodd;fill:#FFFFFF" d="M253.684,83.452c-1.394-16.324,12.557-11.153,20.813-19.495 c3.054,14.024-13.816,14.218-20.755,19.927L253.684,83.452z"/><path style="fill-rule:evenodd;clip-rule:evenodd;fill:#DB001B" d="M253.78,83.509c1.223-17.298,14.966-9.6,24.963-16.967 c0.893,15.168-16.782,12.599-24.976,17.429L253.78,83.509z"/><path style="fill:#457A1C" d="M68.847,104.415c-0.208,1.087-0.391,2.074-0.547,2.959c-0.155,0.888-0.287,1.696-0.391,2.419 c-0.052,0.452,0.189,0.762,0.729,0.924l2.913,0.951l-0.208,1.383c-2.794-0.053-5.378-0.081-7.753-0.081 c-2.568,0-5.231,0.028-7.989,0.081l0.104-1.383l3.514-1.006c0.486-0.126,0.781-0.41,0.883-0.843 c0.157-0.704,0.316-1.512,0.482-2.419c0.164-0.905,0.352-1.898,0.561-2.985l3.98-21.593c0.172-0.922,0.322-1.755,0.441-2.497 c0.123-0.742,0.225-1.412,0.312-2.01c0.07-0.487-0.078-0.795-0.441-0.922l-3.41-1.06l0.235-1.384 c2.792,0.071,5.507,0.108,8.145,0.108s5.177-0.037,7.62-0.108l-0.18,1.384l-3.305,1.004c-0.433,0.11-0.703,0.39-0.805,0.842 c-0.156,0.634-0.305,1.328-0.442,2.08c-0.142,0.749-0.296,1.57-0.47,2.456L68.847,104.415z M71.292,93.932l12.594-12.167 c1.162-1.122,2.02-2.015,2.576-2.676c0.553-0.66,0.832-1.164,0.832-1.508c0-0.269-0.182-0.46-0.547-0.57l-2.055-0.597 l0.209-1.466c1.803,0.071,3.781,0.108,5.932,0.108c2.202,0,4.225-0.037,6.061-0.108l-0.154,1.384l-2.681,0.87 c-0.728,0.235-1.426,0.574-2.095,1.018c-0.666,0.444-1.529,1.181-2.588,2.213l-11.11,10.893l8.793,16.457 c0.538,0.995,1.03,1.735,1.471,2.214c0.442,0.48,1.064,0.839,1.86,1.072l2.031,0.6l-0.186,1.383 c-2.045-0.053-4.153-0.081-6.318-0.081c-1.617,0-3.254,0.018-4.918,0.055c-0.191-0.651-0.576-1.583-1.145-2.797 c-0.573-1.212-1.347-2.733-2.316-4.564L71.292,93.932z"/><path style="fill:#457A1C" d="M104.796,87.332c3.748,0,6.737,1.016,8.977,3.055c2.239,2.036,3.357,4.776,3.357,8.217 c0,4.346-1.358,7.947-4.072,10.811c-2.715,2.859-6.223,4.291-10.525,4.291c-3.797,0-6.805-1.021-9.014-3.057 c-2.213-2.039-3.32-4.73-3.32-8.081c0-4.397,1.338-8.038,4.01-10.917C96.876,88.771,100.409,87.332,104.796,87.332z M104.484,90.129c-1.925,0-3.521,1.236-4.787,3.707c-1.266,2.473-1.891,5.429-1.871,8.868c0.016,2.572,0.457,4.581,1.324,6.03 c0.867,1.448,2.1,2.172,3.695,2.172c1.979,0,3.572-1.27,4.787-3.816c1.214-2.542,1.822-5.472,1.822-8.785 c0-2.571-0.443-4.576-1.328-6.014C107.243,90.848,106.028,90.129,104.484,90.129z"/><path style="fill:#457A1C" d="M117.328,89.884l0.155-1.248c3.034-0.833,5.558-1.249,7.572-1.249 c1.162,0,2.06,0.208,2.692,0.624c0.633,0.415,0.947,1.086,0.947,2.011c0,0.434-0.033,0.805-0.102,1.112l-2.601,12.331 c-0.156,0.797-0.236,1.53-0.236,2.199c0,1.232,0.256,2.188,0.768,2.865c0.513,0.679,1.209,1.018,2.098,1.018 c1.561,0,3.424-1.031,5.593-3.095l3.643-18.251l7.311-0.272l-3.98,20.152c-0.105,0.523-0.156,0.95-0.156,1.275 c0,0.364,0.065,0.653,0.195,0.87c0.129,0.216,0.35,0.384,0.663,0.503c0.312,0.117,0.724,0.193,1.234,0.23 c0.513,0.036,1.151,0.062,1.913,0.081l-0.155,1.276c-3.037,0.76-5.309,1.141-6.815,1.141c-1.303,0-2.33-0.312-3.084-0.938 c-0.756-0.624-1.134-1.516-1.134-2.674c0-0.162,0.009-0.336,0.026-0.518c-2.879,2.934-5.714,4.399-8.508,4.399 c-2.049,0-3.691-0.637-4.931-1.913c-1.241-1.277-1.86-3.02-1.86-5.229c0-0.489,0.028-0.994,0.09-1.521 c0.062-0.523,0.144-1.066,0.25-1.631l2.133-10.807c0.138-0.707,0.208-1.179,0.208-1.414c0-0.488-0.208-0.831-0.626-1.031 C120.214,89.984,119.113,89.884,117.328,89.884z"/><path style="fill:#457A1C" d="M155.225,81.629l4.294-0.79l0.311,0.193c-0.799,3.419-1.346,5.847-1.636,7.278h7.312 l-0.522,2.852h-7.416c-0.504,2.317-1.011,4.666-1.524,7.048c-0.512,2.38-1,4.776-1.469,7.183 c-0.156,0.816-0.232,1.523-0.232,2.117c0,1.033,0.24,1.756,0.729,2.176c0.485,0.416,1.17,0.623,2.055,0.623 c1.196,0,2.773-0.281,4.734-0.841l0.262,1.765c-3.211,1.628-6.236,2.443-9.082,2.443c-1.941,0-3.453-0.416-4.527-1.248 c-1.072-0.832-1.609-2.073-1.609-3.723c0-0.543,0.05-1.141,0.152-1.789c0.314-1.723,0.743-3.886,1.289-6.494 c0.544-2.605,1.234-5.775,2.068-9.504l-3.695-1.008l0.076-1.164l4.58-0.436L155.225,81.629z"/><path style="fill:#457A1C" d="M177.103,87.332c3.748,0,6.737,1.016,8.978,3.055c2.236,2.036,3.354,4.776,3.354,8.217 c0,4.346-1.357,7.947-4.072,10.811c-2.714,2.859-6.222,4.291-10.522,4.291c-3.798,0-6.805-1.021-9.016-3.057 c-2.212-2.039-3.32-4.73-3.32-8.081c0-4.397,1.338-8.038,4.007-10.917C169.185,88.771,172.718,87.332,177.103,87.332z M176.792,90.129c-1.926,0-3.52,1.236-4.789,3.707c-1.264,2.473-1.891,5.429-1.873,8.868c0.02,2.572,0.462,4.581,1.329,6.03 c0.866,1.448,2.099,2.172,3.692,2.172c1.979,0,3.574-1.27,4.787-3.816c1.214-2.542,1.825-5.472,1.825-8.785 c0-2.571-0.444-4.576-1.327-6.014C179.549,90.848,178.336,90.129,176.792,90.129z"/><path style="fill:#457A1C" d="M189.742,89.884l0.158-1.248c3.035-0.833,5.56-1.249,7.573-1.249c1.16,0,2.059,0.208,2.69,0.624 c0.633,0.415,0.952,1.086,0.952,2.011c0,0.434-0.036,0.805-0.105,1.112l-2.602,12.331c-0.156,0.797-0.234,1.53-0.234,2.199 c0,1.232,0.256,2.188,0.769,2.865c0.511,0.679,1.209,1.018,2.093,1.018c1.56,0,3.425-1.031,5.596-3.095l3.643-18.251 l7.311-0.272l-3.981,20.152c-0.105,0.523-0.154,0.95-0.154,1.275c0,0.364,0.064,0.653,0.195,0.87 c0.13,0.216,0.347,0.384,0.662,0.503c0.312,0.117,0.723,0.193,1.235,0.23c0.51,0.036,1.147,0.062,1.913,0.081l-0.158,1.276 c-3.037,0.76-5.305,1.141-6.816,1.141c-1.301,0-2.329-0.312-3.081-0.938c-0.755-0.624-1.133-1.516-1.133-2.674 c0-0.162,0.005-0.336,0.024-0.518c-2.881,2.934-5.714,4.399-8.508,4.399c-2.046,0-3.691-0.637-4.93-1.913 c-1.24-1.277-1.862-3.02-1.862-5.229c0-0.489,0.031-0.994,0.093-1.521c0.061-0.523,0.142-1.066,0.246-1.631l2.134-10.807 c0.14-0.707,0.208-1.179,0.208-1.414c0-0.488-0.208-0.831-0.621-1.031C192.629,89.984,191.531,89.884,189.742,89.884z"/><path style="fill:#457A1C" d="M233.786,72.068l0.312,0.325c-0.153,0.689-0.329,1.473-0.523,2.351 c-0.187,0.877-0.392,1.837-0.607,2.878c-0.218,1.042-0.442,2.15-0.679,3.327c-0.232,1.178-0.478,2.39-0.74,3.638l-1.148,5.758 c3.769-1.971,6.245-2.959,7.444-2.959c2.148,0,3.923,0.924,5.319,2.77c1.397,1.846,2.095,4.029,2.095,6.546 c0,5.142-1.56,9.262-4.683,12.357c-3.122,3.096-7.173,4.645-12.15,4.645c-3.055,0-6.229-0.592-9.524-1.767 c0.521-2.098,1.191-5.251,2.005-9.45l2.524-12.929l2.624-13.308l-4.318-0.652l0.026-1.168 C226.33,73.689,230.337,72.902,233.786,72.068z M226.399,110.744c0.83,0.217,1.621,0.324,2.366,0.324 c2.671,0,4.826-1.303,6.467-3.91c1.636-2.608,2.459-5.631,2.459-9.071c0-1.937-0.257-3.535-0.77-4.794 c-0.51-1.26-1.314-1.886-2.404-1.886c-1.284,0-2.827,0.515-4.632,1.548L226.399,110.744z"/><path style="fill:#457A1C" d="M246.802,88.636c3.105-0.833,5.627-1.249,7.573-1.249c1.159,0,2.067,0.212,2.717,0.639 c0.652,0.424,0.977,1.091,0.977,1.996c0,0.379-0.034,0.751-0.104,1.112l-3.408,17.11c-0.086,0.471-0.13,0.815-0.13,1.033 c0,0.725,0.288,1.199,0.859,1.424c0.574,0.227,1.631,0.341,3.174,0.341l-0.158,1.276c-2.964,0.76-5.356,1.141-7.181,1.141 c-1.281,0-2.282-0.263-3.003-0.789c-0.72-0.523-1.079-1.318-1.079-2.387c0-0.509,0.068-1.143,0.208-1.903l3.122-15.751 c0.14-0.725,0.205-1.195,0.205-1.414c0-0.488-0.195-0.831-0.596-1.031c-0.4-0.199-1.51-0.3-3.33-0.3L246.802,88.636z"/><path style="fill:#457A1C" d="M285.91,87.685c-0.639,2.209-1.291,5.033-1.95,8.475l-2.341,12.084 c-0.086,0.418-0.132,0.759-0.132,1.033c0,0.379,0.075,0.683,0.224,0.908c0.144,0.229,0.381,0.409,0.701,0.545 c0.319,0.135,0.739,0.222,1.247,0.257c0.517,0.036,1.143,0.055,1.888,0.055l-0.181,1.276c-3.037,0.76-5.325,1.141-6.868,1.141 c-1.304,0-2.321-0.305-3.057-0.911c-0.739-0.603-1.108-1.479-1.108-2.62v-0.543c-3.14,2.879-5.402,4.32-6.792,4.32 c-2.36,0-4.318-0.947-5.879-2.84c-1.562-1.893-2.344-4.295-2.344-7.21c0-4.581,1.497-8.446,4.49-11.599 c2.99-3.149,6.767-4.725,11.33-4.725c2.012,0,4.18,0.334,6.507,1.004c1.284-0.234,2.556-0.551,3.823-0.949L285.91,87.685z M277.871,90.51c-0.936-0.454-2.002-0.68-3.198-0.68c-2.274,0-4.146,1.358-5.62,4.074c-1.478,2.717-2.212,5.631-2.212,8.744 c0,1.831,0.271,3.436,0.82,4.822c0.544,1.385,1.172,2.076,1.885,2.076c0.972,0,2.688-0.967,5.153-2.905L277.871,90.51z"/><g><path style="fill:#457A1C" d="M177.396,75.916h31.601l0.327-1.172l0.74-2.204c0.425-1.263,0.635-2.21,0.635-2.84 c0-0.358-0.064-0.658-0.205-0.897c-0.369-0.54-0.911-0.951-1.636-1.23c-0.722-0.283-1.558-0.423-2.498-0.423l-2.685,0.086 l-1.826,0.032l-1.877,0.037l-5.491,0.018l-3.086-0.035l-3.185-0.052c-1.526,0-2.376-0.121-2.547-0.363l-0.054-0.067l0.054-0.122 c0.389-0.47,1.106-0.986,2.148-1.549c0.762-0.449,1.52-0.798,2.275-1.05l1.963-0.776l0.552-0.223l0.501-0.173l0.897-0.309 c0.272-0.114,0.533-0.189,0.77-0.223l0.589-0.104l0.773-1.136l1.155-1.739l-1.087,0.292l-1.05,0.293l-1.343,0.464l-1.135,0.431 c-1.761,0.77-3.138,1.476-4.136,2.119c-0.652,0.413-1.308,0.879-1.963,1.395c-0.757,0.632-1.38,1.186-1.868,1.663 c-0.488,0.474-0.871,1-1.144,1.573c-0.276,0.576-0.415,1.081-0.415,1.516c0,0.426,0.139,0.666,0.415,0.724 c0.411,0.171,0.781,0.311,1.1,0.414l0.566,0.121l0.882,0.017l1.823,0.068l2.913,0.051l5.752-0.154l5.285-0.225l2.723-0.206 h-0.174l0.742,0.034l0.584,0.087c0.381,0.081,0.671,0.201,0.881,0.361c0.467,0.333,0.703,0.827,0.703,1.481l-0.051,0.621 l-23.334-0.156h-6.56L177.396,75.916L177.396,75.916z M153.269,75.916h18.867l1.292-2.342c0.227,0.78,0.569,1.367,1.017,1.755 c0.446,0.391,0.98,0.587,1.601,0.587h1.671v-3.532h-0.467c-0.549,0-1.045-0.188-1.479-0.567 c-0.354-0.369-0.531-0.782-0.531-1.24l0.014-0.205l0.12-0.691l0.07-0.258v-0.277l0.052-0.928l0.053-1.275v-0.446l-2.119,2.515 l-0.088,1.91l-0.017,0.483l-0.086,0.432l-0.154,0.428l-0.053,0.12H153.27v3.531H153.269z M173.392,60.503 c-0.201,0.146-0.5,0.414-0.898,0.807c-0.4,0.393-0.647,0.588-0.747,0.588l-0.483-0.181l-0.713-0.349 c-0.732-0.466-1.143-0.743-1.23-0.831l-0.615,0.581l-0.562,0.565l-0.8,0.882c0.098,0.166,0.493,0.429,1.179,0.795 c0.685,0.366,1.204,0.583,1.545,0.649l0.4-0.449l0.997-0.914l1.396,0.814c0.807,0.411,1.245,0.615,1.311,0.615l0.252-0.215 l0.581-0.566c0.643-0.697,1.026-1.135,1.145-1.311L173.392,60.503z M150.845,80.15c-0.117-0.134-0.267-0.279-0.453-0.434 c-0.135-0.115-0.266-0.224-0.388-0.328l-1.122-0.964c-0.196,0.049-0.619,0.396-1.268,1.034 c-0.649,0.639-0.971,0.993-0.971,1.066c0.029,0.125,0.389,0.452,1.072,0.982c0.684,0.528,1.07,0.791,1.166,0.791 c0.135,0,0.547-0.275,1.238-0.825c0.689-0.548,1.033-0.876,1.033-0.978L150.845,80.15z M136.472,75.916h11.795l0.258-0.447 l0.346-0.655l0.275-0.464l0.12-0.26l0.19-0.396l0.239,0.777l0.276,0.496c0.459,0.632,1.084,0.949,1.877,0.949h1.689v-3.532 h-0.554c-0.446,0-0.854-0.154-1.221-0.464c-0.275-0.343-0.412-0.649-0.412-0.912l0.034-0.344l0.138-0.759l0.05-0.759l0.07-0.325 v-0.432l0.016-0.568l-0.033-0.672l-0.035-0.36c-0.149,0.137-0.546,0.608-1.186,1.41l-0.776,0.999l-0.259,0.328l-0.086,1.67 l-0.068,0.723l-0.137,0.464h-12.605v3.533H136.472z M132.449,78.477l-1.067,1.137l-0.326,0.311l-0.138,0.087 c-0.23-0.07-0.512-0.196-0.845-0.38c-0.77-0.46-1.257-0.822-1.465-1.086l-0.583,0.656l-1.242,1.514 c0.148,0.173,0.495,0.437,1.033,0.792l0.398,0.257l0.394,0.19c0.278,0.138,0.52,0.225,0.724,0.261 c0.012-0.06,0.155-0.243,0.432-0.551l0.896-0.862l1.238,0.774l0.449,0.276l0.5,0.276l0.326,0.173 c0.186-0.106,0.436-0.358,0.756-0.759l0.312-0.36l0.153-0.207l0.137-0.173l0.483-0.724L132.449,78.477z M120.16,75.916h10.723 l1.31-2.342c0.239,0.78,0.552,1.36,0.929,1.739c0.471,0.403,1.016,0.603,1.637,0.603h2.203v-3.532h-0.98l-0.396-0.035 l-0.361-0.101c-0.241-0.094-0.458-0.229-0.657-0.413c-0.398-0.369-0.601-0.788-0.601-1.259l0.019-0.205l0.221-1.705 c0.115-0.656,0.177-1.265,0.177-1.826l-0.036-0.225l-0.051-0.12c-0.166,0.067-0.548,0.493-1.155,1.275l-0.947,1.24l-0.068,0.378 v0.448v0.551l-0.277,1.876l-0.085,0.12h-11.602v3.533H120.16z M116.369,71.093l-0.518,0.016h-0.861l-0.98-0.102 c-0.081-0.059-0.291-0.104-0.639-0.139l-0.602-0.103l-0.654-0.171l-0.568-0.172l1.791-0.896c0.585-0.3,0.995-0.609,1.221-0.93 l0.449-0.913c0.197-0.345,0.43-0.608,0.705-0.794c0.095,0.093,0.225,0.645,0.396,1.655l0.137,0.602 c0.047,0.15,0.07,0.305,0.07,0.466l0.086,0.619v0.449L116.369,71.093z M120.708,72.384h-0.981h-0.346 c-0.308,0-0.522-0.058-0.635-0.171l-0.296-0.431c-0.104-0.253-0.256-1.073-0.463-2.462l-0.656-4.597l-0.275-1.569l-0.309-1.585 l-0.57,1.068l-0.532,0.929l-0.69,1.068l0.156,0.536c0.115,0.263,0.172,0.465,0.172,0.602l-2.93,1.792 c-0.836,0.493-1.393,0.879-1.668,1.152c-0.46,0.425-0.913,1.275-1.359,2.55c-0.449,1.275-0.673,2.119-0.673,2.531l0.431,0.034 l0.604,0.104l1.877,0.396c1.516,0.344,2.358,0.519,2.529,0.519c0.414,0,0.83-0.435,1.25-1.301 c0.419-0.867,0.761-1.371,1.025-1.507l0.205-0.052l0.037,0.173c0.068,0.16,0.163,0.758,0.293,1.791 c0.342,1.307,0.889,1.963,1.632,1.963h2.173v-3.533H120.708z M112.855,58.63l-0.986,0.923c-0.211,0.211-0.37,0.317-0.479,0.317 c-0.155,0-0.5-0.16-1.029-0.479c-0.584-0.38-0.95-0.636-1.1-0.762l-0.506,0.524l-1.211,1.289 c0.106,0.104,0.281,0.232,0.525,0.381l0.525,0.302l0.73,0.382c0.191,0.085,0.4,0.153,0.637,0.206 c0.01-0.084,0.2-0.286,0.57-0.603l0.303-0.271l0.319-0.302c0.083,0.083,0.493,0.317,1.226,0.699 c0.495,0.254,0.836,0.413,1.016,0.477l0.158,0.063c0.086-0.032,0.319-0.252,0.7-0.666l0.524-0.573l0.495-0.572L112.855,58.63z"/></g><g><path style="fill:#FFFFFF" d="M68.055,103.4c-0.208,1.086-0.392,2.072-0.549,2.961c-0.155,0.887-0.286,1.692-0.388,2.416 c-0.052,0.455,0.191,0.763,0.729,0.924l2.913,0.951l-0.207,1.385c-2.795-0.055-5.378-0.08-7.757-0.08 c-2.564,0-5.227,0.025-7.985,0.08l0.103-1.385l3.516-1.006c0.483-0.127,0.778-0.407,0.882-0.842 c0.158-0.705,0.318-1.511,0.481-2.416c0.166-0.906,0.353-1.902,0.561-2.988l3.982-21.592c0.172-0.922,0.319-1.756,0.44-2.497 c0.12-0.742,0.226-1.413,0.312-2.011c0.07-0.489-0.076-0.797-0.443-0.921l-3.406-1.062l0.233-1.382 c2.794,0.069,5.507,0.107,8.143,0.107s5.18-0.039,7.623-0.107l-0.18,1.382l-3.305,1.006c-0.434,0.107-0.703,0.39-0.809,0.84 c-0.154,0.635-0.302,1.328-0.441,2.081c-0.139,0.749-0.294,1.569-0.468,2.457L68.055,103.4z M70.5,92.916L83.095,80.75 c1.16-1.122,2.018-2.015,2.574-2.676c0.555-0.66,0.834-1.164,0.834-1.507c0-0.272-0.184-0.461-0.547-0.57L83.9,75.401 l0.209-1.466c1.802,0.069,3.78,0.107,5.931,0.107c2.205,0,4.223-0.039,6.061-0.107l-0.154,1.382l-2.68,0.871 c-0.729,0.235-1.428,0.574-2.094,1.017c-0.668,0.444-1.53,1.181-2.59,2.213l-11.11,10.893l8.794,16.456 c0.539,0.996,1.027,1.736,1.471,2.214c0.442,0.482,1.063,0.839,1.861,1.072l2.031,0.6l-0.186,1.385 c-2.047-0.055-4.154-0.08-6.32-0.08c-1.615,0-3.255,0.016-4.92,0.053c-0.189-0.651-0.572-1.586-1.143-2.798 c-0.574-1.213-1.346-2.733-2.317-4.564L70.5,92.916z"/><path style="fill:#FFFFFF" d="M104.005,86.316c3.744,0,6.738,1.018,8.975,3.057c2.239,2.036,3.357,4.775,3.357,8.215 c0,4.347-1.358,7.949-4.071,10.81c-2.715,2.861-6.223,4.292-10.528,4.292c-3.796,0-6.801-1.021-9.013-3.057 s-3.319-4.729-3.319-8.079c0-4.4,1.338-8.04,4.009-10.919C96.085,87.757,99.617,86.316,104.005,86.316z M103.69,89.115 c-1.923,0-3.518,1.234-4.784,3.705c-1.266,2.474-1.891,5.429-1.873,8.868c0.016,2.571,0.459,4.582,1.326,6.03 c0.867,1.447,2.098,2.172,3.695,2.172c1.976,0,3.572-1.271,4.787-3.814s1.821-5.473,1.821-8.786 c0-2.571-0.443-4.577-1.328-6.016C106.45,89.834,105.236,89.115,103.69,89.115z"/><path style="fill:#FFFFFF" d="M116.534,88.87l0.157-1.249c3.035-0.834,5.556-1.25,7.57-1.25c1.164,0,2.061,0.209,2.693,0.625 c0.635,0.416,0.952,1.086,0.952,2.01c0,0.434-0.038,0.806-0.107,1.113l-2.599,12.33c-0.158,0.798-0.236,1.532-0.236,2.199 c0,1.234,0.257,2.189,0.77,2.867c0.51,0.678,1.207,1.018,2.092,1.018c1.562,0,3.428-1.032,5.595-3.097l3.643-18.251l7.312-0.27 l-3.982,20.151c-0.103,0.524-0.156,0.949-0.156,1.276c0,0.361,0.066,0.652,0.196,0.868c0.129,0.216,0.35,0.386,0.663,0.504 c0.311,0.116,0.723,0.195,1.235,0.23c0.513,0.038,1.149,0.065,1.911,0.081l-0.156,1.278c-3.034,0.762-5.307,1.139-6.813,1.139 c-1.303,0-2.331-0.31-3.085-0.935c-0.755-0.627-1.135-1.518-1.135-2.676c0-0.163,0.01-0.335,0.031-0.515 c-2.881,2.931-5.718,4.398-8.512,4.398c-2.045,0-3.689-0.637-4.929-1.914c-1.241-1.275-1.86-3.018-1.86-5.227 c0-0.489,0.028-0.996,0.09-1.522c0.061-0.525,0.143-1.066,0.247-1.628l2.136-10.811c0.137-0.707,0.208-1.177,0.208-1.411 c0-0.491-0.208-0.833-0.628-1.034C119.421,88.971,118.322,88.87,116.534,88.87z"/><path style="fill:#FFFFFF" d="M154.434,80.614l4.292-0.788l0.312,0.191c-0.799,3.42-1.346,5.849-1.639,7.277h7.311l-0.52,2.853 h-7.416c-0.502,2.317-1.01,4.667-1.521,7.046c-0.514,2.383-1.002,4.777-1.47,7.184c-0.157,0.816-0.234,1.523-0.234,2.118 c0,1.034,0.241,1.757,0.728,2.174c0.485,0.417,1.17,0.626,2.056,0.626c1.196,0,2.773-0.283,4.734-0.844l0.26,1.766 c-3.209,1.629-6.235,2.445-9.08,2.445c-1.941,0-3.453-0.417-4.527-1.25c-1.076-0.832-1.611-2.072-1.611-3.721 c0-0.545,0.049-1.142,0.152-1.792c0.315-1.722,0.744-3.884,1.291-6.49c0.545-2.608,1.234-5.776,2.066-9.507l-3.695-1.006 l0.078-1.166l4.58-0.436L154.434,80.614z"/><path style="fill:#FFFFFF" d="M176.313,86.316c3.747,0,6.74,1.018,8.976,3.057c2.238,2.036,3.356,4.775,3.356,8.215 c0,4.347-1.357,7.949-4.072,10.81s-6.222,4.292-10.524,4.292c-3.799,0-6.805-1.021-9.016-3.057 c-2.212-2.036-3.318-4.729-3.318-8.079c0-4.4,1.338-8.04,4.007-10.919C168.393,87.757,171.925,86.316,176.313,86.316z M175.999,89.115c-1.924,0-3.521,1.234-4.787,3.705c-1.266,2.474-1.891,5.429-1.873,8.868c0.018,2.571,0.459,4.582,1.327,6.03 c0.865,1.447,2.099,2.172,3.693,2.172c1.98,0,3.573-1.271,4.789-3.814c1.214-2.543,1.821-5.473,1.821-8.786 c0-2.571-0.442-4.577-1.326-6.016C178.757,89.834,177.542,89.115,175.999,89.115z"/><path style="fill:#FFFFFF" d="M188.952,88.87l0.156-1.249c3.035-0.834,5.56-1.25,7.572-1.25c1.158,0,2.057,0.209,2.691,0.625 c0.63,0.416,0.95,1.086,0.95,2.01c0,0.434-0.034,0.806-0.105,1.113l-2.603,12.33c-0.156,0.798-0.234,1.532-0.234,2.199 c0,1.234,0.257,2.189,0.771,2.867c0.508,0.678,1.209,1.018,2.093,1.018c1.56,0,3.425-1.032,5.595-3.097l3.644-18.251l7.31-0.27 l-3.983,20.151c-0.102,0.524-0.154,0.949-0.154,1.276c0,0.361,0.066,0.652,0.197,0.868c0.128,0.216,0.348,0.386,0.66,0.504 c0.315,0.116,0.725,0.195,1.238,0.23c0.51,0.038,1.145,0.065,1.911,0.081l-0.154,1.278c-3.039,0.762-5.31,1.139-6.818,1.139 c-1.301,0-2.331-0.31-3.083-0.935c-0.755-0.627-1.133-1.518-1.133-2.676c0-0.163,0.007-0.335,0.028-0.515 c-2.883,2.931-5.717,4.398-8.513,4.398c-2.046,0-3.689-0.637-4.929-1.914c-1.238-1.275-1.863-3.018-1.863-5.227 c0-0.489,0.032-0.996,0.093-1.522c0.061-0.525,0.145-1.066,0.249-1.628l2.134-10.811c0.14-0.707,0.208-1.177,0.208-1.411 c0-0.491-0.208-0.833-0.625-1.034C191.838,88.971,190.738,88.87,188.952,88.87z"/><path style="fill:#FFFFFF" d="M232.995,71.053l0.311,0.326c-0.154,0.688-0.33,1.472-0.521,2.349 c-0.19,0.879-0.396,1.838-0.61,2.879c-0.217,1.042-0.441,2.151-0.676,3.329c-0.234,1.177-0.482,2.389-0.742,3.638l-1.146,5.758 c3.765-1.974,6.245-2.961,7.441-2.961c2.151,0,3.928,0.924,5.32,2.77c1.398,1.848,2.097,4.03,2.097,6.547 c0,5.142-1.56,9.262-4.685,12.357c-3.123,3.097-7.173,4.645-12.151,4.645c-3.054,0-6.226-0.59-9.521-1.766 c0.52-2.1,1.189-5.251,2.002-9.451l2.524-12.928l2.627-13.308l-4.318-0.654l0.026-1.166 C225.536,72.675,229.543,71.887,232.995,71.053z M225.606,109.728c0.832,0.217,1.621,0.324,2.368,0.324 c2.671,0,4.824-1.303,6.465-3.908c1.638-2.608,2.458-5.631,2.458-9.072c0-1.936-0.254-3.535-0.767-4.793 c-0.51-1.258-1.313-1.889-2.407-1.889c-1.284,0-2.827,0.516-4.631,1.549L225.606,109.728z"/><path style="fill:#FFFFFF" d="M246.008,87.621c3.108-0.834,5.63-1.25,7.576-1.25c1.159,0,2.067,0.214,2.717,0.639 c0.652,0.424,0.977,1.092,0.977,1.996c0,0.379-0.036,0.752-0.104,1.113l-3.408,17.111c-0.088,0.469-0.13,0.814-0.13,1.031 c0,0.725,0.283,1.2,0.859,1.426c0.571,0.227,1.626,0.339,3.174,0.339l-0.158,1.278c-2.964,0.762-5.359,1.139-7.181,1.139 c-1.284,0-2.285-0.262-3.003-0.786c-0.723-0.524-1.081-1.321-1.081-2.392c0-0.507,0.065-1.14,0.21-1.9l3.12-15.752 c0.139-0.725,0.207-1.195,0.207-1.411c0-0.491-0.197-0.833-0.596-1.034c-0.4-0.197-1.511-0.298-3.331-0.298L246.008,87.621z"/><path style="fill:#FFFFFF" d="M285.119,86.671c-0.64,2.209-1.291,5.034-1.953,8.473l-2.339,12.087 c-0.088,0.416-0.131,0.76-0.131,1.031c0,0.379,0.072,0.683,0.222,0.909c0.147,0.226,0.383,0.408,0.701,0.545 c0.321,0.135,0.739,0.223,1.249,0.259c0.513,0.036,1.143,0.052,1.888,0.052l-0.184,1.278c-3.034,0.762-5.321,1.139-6.87,1.139 c-1.299,0-2.319-0.304-3.057-0.909c-0.734-0.606-1.103-1.481-1.103-2.62v-0.545c-3.142,2.879-5.405,4.32-6.792,4.32 c-2.36,0-4.318-0.947-5.879-2.839c-1.562-1.893-2.344-4.296-2.344-7.211c0-4.581,1.494-8.447,4.49-11.597 c2.99-3.151,6.768-4.727,11.33-4.727c2.012,0,4.18,0.337,6.504,1.005c1.284-0.233,2.559-0.553,3.826-0.95L285.119,86.671z M277.08,89.496c-0.935-0.455-2.005-0.68-3.201-0.68c-2.273,0-4.146,1.357-5.62,4.072c-1.472,2.717-2.212,5.633-2.212,8.746 c0,1.83,0.273,3.436,0.82,4.82c0.545,1.387,1.175,2.078,1.888,2.078c0.969,0,2.686-0.968,5.148-2.904L277.08,89.496z"/></g><g><path style="fill:#FFFFFF" d="M168.185,62.567c0.688,0.367,1.204,0.582,1.546,0.65l0.4-0.448l0.996-0.915l1.395,0.813 c0.807,0.41,1.247,0.614,1.31,0.614l0.252-0.215l0.582-0.564c0.643-0.699,1.023-1.137,1.148-1.312l-2.76-1.479 c-0.199,0.143-0.5,0.413-0.898,0.804c-0.4,0.395-0.646,0.59-0.749,0.59l-0.48-0.181l-0.715-0.349 c-0.73-0.465-1.142-0.742-1.23-0.831l-0.614,0.58l-0.566,0.566l-0.796,0.881C167.106,61.938,167.498,62.201,168.185,62.567z"/><path style="fill:#FFFFFF" d="M131.045,78.821l-0.328,0.31l-0.135,0.089c-0.232-0.069-0.513-0.196-0.848-0.379 c-0.768-0.461-1.253-0.824-1.461-1.087l-0.585,0.656l-1.241,1.516c0.148,0.173,0.494,0.436,1.033,0.79l0.396,0.261l0.397,0.187 c0.276,0.139,0.517,0.225,0.723,0.261c0.011-0.058,0.156-0.242,0.43-0.551l0.896-0.862l1.238,0.773l0.448,0.277l0.499,0.277 l0.328,0.172c0.186-0.105,0.439-0.357,0.759-0.758l0.311-0.363l0.152-0.206l0.139-0.172l0.481-0.724l-2.564-1.603 L131.045,78.821z"/><path style="fill:#FFFFFF" d="M109.623,60.922c0.012-0.086,0.199-0.286,0.572-0.604l0.302-0.271l0.319-0.302 c0.084,0.084,0.491,0.316,1.225,0.699c0.498,0.254,0.836,0.414,1.016,0.478l0.158,0.063c0.088-0.033,0.32-0.254,0.701-0.667 l0.523-0.573l0.494-0.572l-2.414-1.335l-0.988,0.923c-0.209,0.21-0.369,0.318-0.475,0.318c-0.158,0-0.503-0.16-1.033-0.479 c-0.584-0.381-0.949-0.634-1.098-0.762l-0.509,0.523l-1.209,1.289c0.106,0.105,0.282,0.232,0.524,0.379l0.526,0.305l0.729,0.38 C109.177,60.8,109.388,60.869,109.623,60.922z"/><path style="fill:#FFFFFF" d="M210.156,68.011c-0.366-0.541-0.913-0.951-1.636-1.232c-0.726-0.281-1.558-0.422-2.498-0.422 l-2.686,0.085l-1.826,0.036l-1.88,0.033l-5.488,0.019l-3.083-0.034l-3.188-0.053c-1.526,0-2.376-0.119-2.547-0.36l-0.054-0.068 l0.054-0.122c0.391-0.468,1.105-0.986,2.151-1.549c0.757-0.448,1.516-0.798,2.272-1.049l1.963-0.776l0.552-0.224l0.501-0.173 l0.894-0.308c0.275-0.117,0.537-0.191,0.773-0.225l0.589-0.103l0.775-1.138l1.152-1.738l-1.083,0.29l-1.053,0.294l-1.343,0.465 l-1.138,0.43c-1.755,0.77-3.135,1.477-4.131,2.119c-0.656,0.413-1.31,0.877-1.965,1.396c-0.757,0.629-1.38,1.184-1.868,1.661 c-0.489,0.475-0.869,1.001-1.147,1.575c-0.272,0.574-0.411,1.079-0.411,1.516c0,0.425,0.139,0.665,0.411,0.723 c0.415,0.173,0.785,0.312,1.104,0.414l0.568,0.121l0.879,0.016l1.823,0.068l2.913,0.054l5.749-0.156l5.288-0.225l2.654-0.202 l0.635,0.03l0.586,0.086c0.378,0.081,0.671,0.202,0.879,0.362c0.469,0.331,0.705,0.827,0.705,1.482l-0.051,0.62l-23.334-0.156 h-6.238v-0.002h-0.462c-0.553,0-1.046-0.19-1.482-0.566c-0.357-0.369-0.535-0.781-0.535-1.24l0.018-0.207l0.121-0.689 l0.068-0.258v-0.275l0.053-0.928l0.051-1.276v-0.447l-2.119,2.513l-0.086,1.913l-0.015,0.481l-0.089,0.431l-0.152,0.431 l-0.051,0.119H153.2v-0.001h-0.551c-0.449,0-0.857-0.155-1.223-0.464c-0.275-0.345-0.416-0.65-0.416-0.913l0.035-0.344 l0.139-0.758l0.051-0.757l0.068-0.327v-0.431l0.018-0.568l-0.031-0.671l-0.037-0.361c-0.148,0.136-0.545,0.606-1.186,1.411 l-0.776,0.998l-0.258,0.328l-0.086,1.67l-0.072,0.724l-0.135,0.464h-12.114v-0.002h-0.982l-0.395-0.034l-0.362-0.103 c-0.24-0.093-0.46-0.229-0.655-0.414c-0.401-0.367-0.604-0.787-0.604-1.256l0.02-0.207l0.223-1.705 c0.115-0.655,0.174-1.263,0.174-1.825l-0.035-0.225l-0.053-0.119c-0.162,0.068-0.545,0.493-1.154,1.274l-0.945,1.239 l-0.068,0.379v0.448v0.552l-0.275,1.878l-0.088,0.119h-11.058v-0.001h-0.979h-0.346c-0.309,0-0.522-0.056-0.636-0.171 l-0.294-0.432c-0.104-0.251-0.258-1.071-0.464-2.462l-0.655-4.599l-0.277-1.566l-0.309-1.583l-0.569,1.067l-0.534,0.928 l-0.689,1.069l0.158,0.533c0.113,0.265,0.173,0.466,0.173,0.603l-2.93,1.791c-0.84,0.496-1.394,0.879-1.67,1.153 c-0.459,0.425-0.913,1.275-1.363,2.55c-0.446,1.275-0.669,2.119-0.669,2.531l0.434,0.034l0.6,0.105l1.878,0.397 c1.515,0.343,2.358,0.516,2.529,0.516c0.414,0,0.831-0.432,1.249-1.299c0.42-0.869,0.762-1.37,1.027-1.508l0.207-0.051 l0.032,0.172c0.068,0.159,0.165,0.757,0.293,1.79c0.346,1.309,0.89,1.964,1.634,1.964h1.628v0.001h10.718l1.311-2.343 c0.24,0.781,0.551,1.36,0.93,1.738c0.471,0.404,1.015,0.605,1.636,0.605h2.204v0h11.305l0.256-0.449l0.344-0.653l0.275-0.466 l0.123-0.259l0.19-0.394l0.239,0.773l0.275,0.499c0.459,0.634,1.084,0.95,1.877,0.95h1.69v-0.001h18.6l1.289-2.343 c0.229,0.781,0.57,1.367,1.016,1.757c0.449,0.39,0.984,0.586,1.604,0.586h1.347h0.003h0.319h31.281l0.327-1.171l0.742-2.205 c0.423-1.264,0.635-2.21,0.635-2.841C210.363,68.551,210.293,68.251,210.156,68.011z M116.066,69.886l-0.033,0.414l-0.518,0.018 h-0.863l-0.98-0.104c-0.08-0.056-0.291-0.104-0.637-0.137l-0.604-0.104l-0.652-0.172l-0.572-0.173l1.792-0.895 c0.587-0.298,0.995-0.608,1.224-0.93l0.448-0.912c0.194-0.346,0.43-0.609,0.704-0.794c0.094,0.092,0.229,0.641,0.398,1.653 l0.139,0.603c0.046,0.15,0.068,0.303,0.068,0.464l0.086,0.62V69.886z"/><path style="fill:#FFFFFF" d="M150.054,78.923c-0.135-0.113-0.264-0.222-0.389-0.326l-1.119-0.964 c-0.199,0.051-0.623,0.398-1.268,1.033c-0.65,0.639-0.972,0.995-0.972,1.067c0.026,0.125,0.386,0.451,1.073,0.98 c0.682,0.53,1.072,0.794,1.166,0.794c0.134,0,0.547-0.277,1.237-0.826c0.69-0.549,1.034-0.875,1.034-0.981l-0.31-0.342 C150.392,79.223,150.239,79.077,150.054,78.923z"/></g><g><path style="fill:#FFFFFF" d="M290.93,82.949c1.856,0,3.413,1.465,3.413,3.385c0,1.958-1.557,3.424-3.413,3.424 c-1.866,0-3.432-1.466-3.432-3.424C287.498,84.414,289.064,82.949,290.93,82.949z M290.93,89.257 c1.574,0,2.794-1.256,2.794-2.923c0-1.629-1.22-2.885-2.794-2.885c-1.593,0-2.812,1.256-2.812,2.885 C288.118,88.001,289.337,89.257,290.93,89.257z M289.602,84.359h1.537c0.946,0,1.393,0.373,1.393,1.139 c0,0.719-0.455,1.02-1.047,1.082l1.139,1.758h-0.665l-1.083-1.712h-0.655v1.712h-0.618L289.602,84.359L289.602,84.359z M290.22,86.125h0.646c0.545,0,1.046-0.027,1.046-0.655c0-0.527-0.455-0.609-0.873-0.609h-0.819V86.125z"/></g></g></svg>