<svg version="1.1" id="Layer_1" xmlns="http://www.w3.org/2000/svg" x="0px" y="0px" viewBox="0 0 1000 1000" style="enable-background:new 0 0 1000 1000" xml:space="preserve"><style>.st2{fill:#531519}</style><linearGradient id="SVGID_1_" gradientUnits="userSpaceOnUse" x1="93.4899" y1="488.8828" x2="904.4568" y2="488.8828"><stop offset="0" style="stop-color:#88171A"/><stop offset="1" style="stop-color:#9A1D21"/></linearGradient><path d="M902.9,518.1l-47.7-91.3l34.1-65.6c2.8-5.5-1.1-12-7.3-12h-55c-4.7,0-9,2.5-11.4,6.5l-13.4,22.6v-17.1	c0-6.6-5.4-12-12-12h-48.1l-7-61.5c-0.9-8.1-10.1-12.4-16.9-7.9l-41.3,27c-4.5,2.9-6.7,8.3-5.6,13.5l8.9,44.2l-6.3,1.6l0-10.9	c0-2.8-0.6-5.5-2-7.9c-3.6-6.1-10.7-8.9-17.3-6.9l-40.2,11.7c-7.7,2.2-12.2,10.1-10.3,17.9l12.2,48.9l-43.7-46.7	c-2.8-2.9-6.9-4.1-10.8-3.1l-47.3,12.7c-6.6,1.8-10.6,8.4-9.1,15.1l7.5,33.1l0,0c-22.2-26.5-53.2-44-88.1-46.8l-23.2,44l13.5,6.2	L401.8,460l11.6,5.1v52.5c0,2.3,1.7,4.1,4,4.4l21.1,2.1c2.4,0.2,4.2,2.4,3.9,4.8l-5.5,55.9l29.6,53.5l-7.3,2.9l-16.4,7.5l-1.9,0.5	l-1.7-30.5l-13.4-3.3l-1.5-55.7c-0.1-2.1-1.6-3.9-3.7-4.2l-28.8-4.5c-2.2-0.3-3.8-2.3-3.7-4.6L392,470l-7.7-9.7l9.8-14.5L375,389.6	c-28.2,9.9-52.3,29.8-68.7,55.8c0,0,0,0,0,0l-14.4-31.3c-2.3-5-8.2-7.3-13.3-5l-179,78.2c-5,2.2-7.4,8-5.3,13.1l23.4,57.8	c2.1,5.3,8.2,7.8,13.4,5.5l47.3-20.3l57.6,145.6c3.9,9.8,15.6,13.8,24.7,8.5l55.8-32.9c5.4-3.2,7.7-9.8,5.5-15.6l-13.9-37.2l0,0	c24,36.4,63.2,60.1,107.4,60.1c9.2,0,18.1-1,26.8-3c0,0,24.9-5.8,34-13.2c34.1-19.3,59.6-54.4,68.3-96.5l0,0l8.9,33.3	c2,7.4,10,11.3,17,8.3l46.4-19.6c4.9-2.1,7.6-7.4,6.3-12.6l-12.8-52l40.4,40.7c5,5.1,12.7,6.5,19.2,3.5l22.6-10.4l0.7,3.1	c1.5,6.8,8.2,11,15,9.6l38.9-5.2c3.3-0.4,6.2-2.1,8.3-4.7l2.3-2.8l3,2.5c3,2.5,6.9,3.7,10.8,3.3l32.9-3.1	c7.7-0.7,13.5-7.2,13.3-14.9l-0.8-40.9l18.3,39.3c1.8,3.8,5.6,6.2,9.8,6.2l45.9-4.6C901,538.2,907.7,527.2,902.9,518.1z M284.4,548.5L284.4,548.5l-19.3-43.9l21-8.9c0,0-3.2,20.7-3.2,31.6C283,534.5,283.5,541.6,284.4,548.5z" style="fill:url(#SVGID_1_)"/><linearGradient id="SVGID_2_" gradientUnits="userSpaceOnUse" x1="412.1935" y1="528.5304" x2="443.9528" y2="517.8918"><stop offset="0" style="stop-color:#AA2328"/><stop offset="1" style="stop-color:#AA2328;stop-opacity:0"/></linearGradient><path d="M413.4,517.6c0,2.3,1.7,4.1,4,4.4l21.1,2.1c2.4,0.2,4.2,2.4,3.9,4.8l-5.5,55.9l3.5,6.3l0,0l8.9-68.9l-30.5-4.9	V464l-17-4l11.6,5.1V517.6z" style="fill:url(#SVGID_2_)"/><path class="st2" d="M704.8,533.4l-41.3-180.2c-0.2-0.9-1.1-1.4-1.9-1.1l-40.5,13.3c-0.7,0.2-1.2,1-1,1.8l23.4,94.7 c0.4,1.5-1.5,2.5-2.6,1.4l-73.8-79.6c-0.4-0.4-1-0.6-1.5-0.4L520.9,396c-0.8,0.2-1.2,1-1,1.8L569,591.6c0.2,0.9,1.2,1.4,2.1,1 l41.3-18.1c0.7-0.3,1-1,0.9-1.7l-24.5-96.1c-0.4-1.5,1.5-2.5,2.5-1.4l74.1,76.1c0.4,0.5,1.1,0.6,1.7,0.3l36.9-16.6 C704.6,534.8,704.9,534.1,704.8,533.4z"/><path class="st2" d="M311.4,656.7c0.6-0.4,0.9-1.1,0.7-1.8l-59.3-155.6l0.5-0.2l51.8-24c0.7-0.3,1.1-1.2,0.8-1.9l-19.6-49.1 c-0.3-0.8-1.2-1.2-2-0.8l-173.4,73.5c-0.8,0.3-1.1,1.2-0.8,2l21.7,53c0.3,0.8,1.3,1.2,2,0.8l55.1-26.3l0.2,0.5l64.7,160.4 c0.3,0.8,1.3,1.2,2.1,0.7L311.4,656.7z"/><path class="st2" d="M896.8,528.2l-52.5-99.4c-0.2-0.5-0.2-1,0-1.4l35.2-62.7c0.6-1-0.2-2.2-1.3-2.2h-45.4c-0.6,0-1.1,0.3-1.3,0.8 l-30.3,61.2c-0.7,1.4-2.7,1-2.8-0.6l-3.6-60c0-0.8-0.7-1.4-1.5-1.4h-39.6c-0.9,0-1.6,0.8-1.5,1.6l16.1,179.5 c0.1,0.8,0.8,1.4,1.7,1.4l37.5-4.1c0.8-0.1,1.4-0.8,1.3-1.6l-3.5-41.5c0-0.3,0-0.6,0.2-0.8l15.1-27.5c0.6-1.1,2.2-1,2.7,0.1 l27.9,64c0.3,0.6,0.9,1,1.5,0.9l43-4.1C896.7,530.3,897.3,529.2,896.8,528.2z"/><path class="st2" d="M419.2,661.5c66.6,0,120.7-59,120.7-131.8c0-69.3-49-126.1-111.3-131.3c-0.6,0-1.2,0.3-1.4,0.8l-15.6,28.3 c-0.5,0.9,0,2,1,2.2l13,2.5c1,0.2,1.5,1.3,1,2.2l-15.1,25.4c-0.5,0.8-0.1,1.9,0.8,2.2l0.9,0.3c0.6,0.2,1.3,0,1.7-0.5l4-5.1 c0.3-0.4,0.9-0.7,1.4-0.6c1.4,0.3,4,1.5,5.8,6.5c0.1,0.4,0.2,0.7,0.3,1.1c0.1,0.6,0.6,1.1,1.2,1.2c29.2,4.3,51.6,30.8,51.6,63 c0,27-15.9,50.1-38.3,59.3l0.1,0l0,5.1c0,0.3,0.1,0.5,0.2,0.7l25.1,45.4c0.4,0.8,0.1,1.8-0.8,2.1l-5.7,2.3l-11.6,5.3 c-0.4,0.2-0.7,0.6-0.8,1.1l-0.4,2l0-0.3c-0.1-1-1.2-1.6-2.1-1.2l-1.2,0.6c-0.1,0-0.2,0.1-0.3,0.1l0,0c-0.9,0.2-1.8-0.4-1.8-1.4 l-1.5-27c0-0.7-0.6-1.3-1.3-1.4l-12.9-1.3c-0.7-0.1-1.3-0.6-1.3-1.3l-2.6-26.6l0.2-0.1c-0.9,0-1.7,0.1-2.6,0.1 c-33.1,0-59.9-28.5-59.9-63.6c0-21.5,10-40.5,25.4-52c0.6-0.4,0.8-1.2,0.5-1.9l-6.7-13.7c-0.3-0.5-0.2-1.1,0.2-1.6l12.5-16.2 c0.3-0.4,0.4-0.9,0.3-1.3l-4.2-15.4c0,0,0-0.1,0-0.1l-6.6-19.2c-0.3-0.8-1.2-1.2-2-0.9c-46.6,18.2-80.1,66.9-80.1,124.1 C298.6,602.5,352.6,661.5,419.2,661.5z"/><path class="st2" d="M725.6,291.1h-1.5c-0.3,0-0.6,0.1-0.8,0.3l-35.3,24c-0.5,0.3-0.7,0.8-0.7,1.4l3.1,33.2 c0.1,0.9,0.9,1.5,1.7,1.3l40-6.4c0.8-0.1,1.3-0.9,1.3-1.7l-6.2-50.8C727,291.7,726.3,291.1,725.6,291.1z"/><path class="st2" d="M751.9,545.2l-15.1-181.1c-0.1-0.8-0.8-1.5-1.7-1.4l-42.2,4.8c-0.8,0.1-1.4,0.8-1.3,1.6l17.2,182.1 c0.1,0.9,0.9,1.5,1.7,1.3l40.1-5.8C751.4,546.7,752,546,751.9,545.2z"/><linearGradient id="SVGID_3_" gradientUnits="userSpaceOnUse" x1="594.7551" y1="653.6622" x2="614.4668" y2="686.0457"><stop offset="0" style="stop-color:#981C1F"/><stop offset="1" style="stop-color:#6C090A"/></linearGradient><path d="M469.1,673.3c0,0,36.1,50.7,102.3,52.1c66.2,1.4,103.2-71.9,111.9-152.5C683.2,572.9,609.8,710.5,469.1,673.3z" style="fill:url(#SVGID_3_)"/><linearGradient id="SVGID_4_" gradientUnits="userSpaceOnUse" x1="466.2303" y1="329.0676" x2="481.718" y2="344.5554"><stop offset="0" style="stop-color:#981C1F"/><stop offset="1" style="stop-color:#6C090A"/></linearGradient><polygon points="463.4,384.7 486,333.1 525.4,329.8" style="fill:url(#SVGID_4_)"/><linearGradient id="SVGID_5_" gradientUnits="userSpaceOnUse" x1="340.7224" y1="322.3083" x2="342.1304" y2="346.2439"><stop offset="0" style="stop-color:#981C1F"/><stop offset="1" style="stop-color:#6C090A"/></linearGradient><polygon points="330.1,380.5 323.1,329.8 359.2,329.8" style="fill:url(#SVGID_5_)"/><linearGradient id="SVGID_6_" gradientUnits="userSpaceOnUse" x1="210.0285" y1="337.9236" x2="222.7003" y2="354.8193"><stop offset="0" style="stop-color:#981C1F"/><stop offset="1" style="stop-color:#6C090A"/></linearGradient><polygon points="316.1,395.8 202.5,337.3 173.4,372.5" style="fill:url(#SVGID_6_)"/><linearGradient id="SVGID_7_" gradientUnits="userSpaceOnUse" x1="393.4946" y1="690.7141" x2="450.2067" y2="690.7141"><stop offset="0" style="stop-color:#981C1F"/><stop offset="1" style="stop-color:#6C090A"/></linearGradient><polygon points="450.2,674.8 393.5,703.4 421.9,706.7" style="fill:url(#SVGID_7_)"/><linearGradient id="SVGID_8_" gradientUnits="userSpaceOnUse" x1="459.2779" y1="702.4478" x2="478.916" y2="702.4478"><stop offset="0" style="stop-color:#981C1F"/><stop offset="1" style="stop-color:#6C090A"/></linearGradient><polygon points="459.3,679.4 459.3,725.4 478.9,712.3" style="fill:url(#SVGID_8_)"/><linearGradient id="SVGID_9_" gradientUnits="userSpaceOnUse" x1="482.0162" y1="370.8484" x2="496.4095" y2="460.3375"><stop offset="0" style="stop-color:#FFFCF7"/><stop offset="1" style="stop-color:#FFE577"/></linearGradient><path d="M659.2,349.2l41.9,183l-39,17.5l-78.7-80.9l26.2,102.8l-44.1,19.3L515.6,394l47-13.5l78.4,84.6l-25.2-101.7	L659.2,349.2z M687.6,365.2l17.5,185.2l43-6.2l-15.3-184.1L687.6,365.2z M840,425.7l36.8-65.6H828l-33.2,67.1l-4-67.1h-42.6	l16.4,182.6l40.5-4.4l-3.6-43.4l16.8-30.6l29.5,67.8l46.3-4.4L840,425.7z M729.5,342.3l-6.6-53.6h-3.3l-36.5,24.8l3.3,35.7	L729.5,342.3z M423.7,395.8l-17.1,31l17.1,3.3l-17.1,28.8l3.6,1.3l5.1-6.6c0,0,4.2-0.5,6.7,6.6c0.3,0.8,0.4,1.5,0.5,2.1	c29.7,3.8,52.7,30.6,52.7,63.1c0,27-15.9,50.1-38.3,59.3l0.1,0l-0.2,18.9l12.8,11.2l-6.8,33.9l-3.6-30.1l-18.9-1.9l-2.7-27.8	l0.2-0.1c-0.9,0-1.7,0.1-2.6,0.1c-33.1,0-59.9-28.5-59.9-63.6c0-21.9,10.5-41.3,26.4-52.7l-7.6-15.6l13.5-17.5l-10.1-37.5	c-48.1,17.3-82.9,66.8-82.9,125.1c0,72.8,54,131.8,120.7,131.8C482,659,536,600,536,527.3C536,457.6,486.4,400.5,423.7,395.8z M249.2,496.7l53.1-24.6l-20.7-51.9l-176.1,74.7l22.9,55.8l56.5-27l0.2,0.5l65.4,162l58.1-32.6l-59.8-156.8L249.2,496.7z" style="fill:url(#SVGID_9_)"/><path d="M682.8,576.5c0.1-1.2,0.3-2.4,0.4-3.5c0,0-73.4,137.6-214.1,100.4c0,0,0.9,1.3,2.8,3.5	C604.8,710,676.9,587.1,682.8,576.5z" style="fill:#C0292F"/><linearGradient id="SVGID_10_" gradientUnits="userSpaceOnUse" x1="394.1905" y1="532.3922" x2="388.5583" y2="533.018"><stop offset="0" style="stop-color:#AA2328"/><stop offset="1" style="stop-color:#AA2328;stop-opacity:0"/></linearGradient><path d="M381.9,461l7.2,10.5l-4.5,82.6l34.3,5.6l7,55.6l-1.5-55.7c-0.1-2.1-1.6-3.9-3.7-4.2l-28.8-4.5	c-2.2-0.3-3.8-2.3-3.7-4.6L392,470l-7.7-9.7l9.8-14.5L381.9,461z" style="fill:url(#SVGID_10_)"/></svg>