<svg version="1.1" id="Calque_1" xmlns="http://www.w3.org/2000/svg" x="0px" y="0px" viewBox="0 0 595.28 382.5" style="enable-background:new 0 0 595.28 382.5" xml:space="preserve"><ellipse style="fill:#E31E26" cx="297.64" cy="191.25" rx="231.204" ry="136.71"/><path style="fill:#FBDD00" d="M371.726,104.473c16.2-4.054,32.725-6.6,49.153-9.491c0.055-0.01,0.11,0.018,0.136,0.068 c0.285,0.563,0.57,1.127,0.861,1.69c0.041,0.08-0.01,0.175-0.099,0.184c-17.407,1.801-34.455,6.153-51.569,9.424 c-0.087,0.017-0.169-0.062-0.156-0.149C370.195,105.222,370.751,104.645,371.726,104.473z"/><path style="fill:#BE9D56" d="M298.416,101.347c11.256-5.948,25.737-4.822,36.096,2.502c-1.985,2.236-4.525,4.51-7.742,3.286 c-5.332-1.734-7.066,6.328-12.108,5.202c-4.16-0.859-6.86,2.875-9.408,5.453c-3.506-0.7-7.104,0.046-9.256,3.095 c-2.206,3.301-7.073,0.525-9.378,3.613c-1.924,2.137-3.461,4.586-5.347,6.754c-0.738-1.879-1.399-3.902-0.852-5.932 C282.536,115.242,289.267,106.115,298.416,101.347z"/><path style="fill:#BE9D56" d="M338.84,131.693c3.628-0.076,7.309-0.319,10.731-1.635c0.213,10.747-3.544,22.338-12.511,28.901 c-12.762,11.644-34.925,11.233-46.645-1.673c1.095-1.704,2.251-3.354,3.499-4.944c4.175,0.015,8.898-0.494,9.978-5.331 c3.605-0.464,7.857-0.068,10.473-3.118c3.141-3.894,9.545,0.51,12.496-3.506C329.325,135.169,338.596,138.895,338.84,131.693z"/><path style="fill:#FBDD00" d="M375.441,94.016c0.003-0.001,0.006-0.002,0.009-0.002c8.638-1.719,17.094-4.646,25.915-5.255 c-0.411,2.152-3.331,1.354-4.928,1.97c-13.014,3.105-26.095,6.059-38.947,9.803c-0.363-1.1-0.198-0.599-0.56-1.699 C362.947,96.749,369.344,95.867,375.441,94.016z"/><path style="fill:#FBDD00" d="M340.224,109.106c0.008,0.014,0.015,0.028,0.023,0.042c3.126-3.059,7.22-5.108,11.536-5.807 c0.874-0.142,1.659,0.614,1.524,1.489c-0.311,2.004-0.998,3.949-2.021,5.7c4.598-3.231,10.47-4.595,16.021-3.72 c0.28,2.771-1.688,5.384-4.145,6.695c-2.457,1.311-5.32,1.582-8.1,1.76l-0.525,1.926c1.521-0.215,3.126-0.422,4.495,0.51 c0.589,0.401,1.008,1.047,1.051,1.758c0.109,1.808-1.82,2.611-3.442,2.911c-4.267,0.789-8.728,0.51-12.863-0.805 c1.605,1.328,2.787,3.153,3.367,5.153c0.225,0.777-0.337,1.548-1.145,1.588c-5.186,0.253-10.419-0.492-15.326-2.191l4.628,5.043 c0.52,0.567,0.396,1.461-0.249,1.881c-2.065,1.344-4.745,1.702-7.219,1.353c-2.961-0.418-5.713-1.72-8.413-3.005 c2.411,1.302,4.359,3.433,5.472,5.934c0.349,0.783-0.181,1.677-1.035,1.747c-5.174,0.425-10.471-0.689-15.024-3.186 c0.462,1.195,1.542,2.017,2.381,2.986c0.839,0.969,1.463,2.392,0.824,3.504c-0.528,0.92-1.692,1.229-2.743,1.374 c-4.019,0.556-8.194-0.06-11.881-1.754c0.36,1.246,1.445,2.121,2.193,3.181c0.748,1.059,1.071,2.722,0.044,3.515 c-0.446,0.345-1.037,0.426-1.599,0.474c-4.202,0.362-8.501-0.464-12.27-2.356c1.34,1.262,2.681,2.525,4.021,3.787 c0.457,0.431,0.944,0.921,0.996,1.547c0.068,0.82-0.641,1.496-1.363,1.892c-5.533,3.036-12.147-2.902-18.388-1.959 c-1.788,0.27-3.436,1.1-5.045,1.926c-9.675,4.968-19.203,10.224-28.565,15.759c-1.182,0.699-1.601,1.084-2.82,0.324 c-0.375-0.234-2.856-2.149-3.154-2c11.845-6.523,23.689-13.045,35.534-19.568c1.165-0.642,2.363-1.311,3.186-2.356 c1.612-2.047,1.391-4.94,2.112-7.443c0.765-2.658,2.723-4.934,5.202-6.147c0.726-0.355,1.6,0.017,1.85,0.785l1.783,5.47 c1.477-5.042,4.645-9.566,8.847-12.715c0.819-0.614,1.996-0.128,2.127,0.887l0.679,5.247c1.337-4.532,4.138-8.615,7.861-11.521 c0.764-0.597,1.876-0.161,2.1,0.782c0.353,1.49,0.52,3.023,0.492,4.554c2.164-4.447,5.595-8.264,9.775-10.905 c0.697-0.44,1.624-0.153,1.944,0.606l1.384,3.281c1.883-4.089,5.293-7.444,9.388-9.304c0.802-0.364,1.728,0.171,1.846,1.044 l0.612,4.533c1.856-3.94,5.224-7.139,9.237-8.823c0.631-0.265,1.362-0.012,1.69,0.588L340.224,109.106z"/><path style="fill:#FBDD00" d="M365.695,116.74c12.224-3.007,24.478-5.931,36.89-8.08c0.081-0.014,0.154,0.047,0.151,0.128 c-0.015,0.404-0.037,1.026-0.052,1.412c-0.002,0.06-0.046,0.105-0.106,0.115c-12.947,2.17-25.578,5.86-38.481,8.113 C364.28,117.508,364.813,116.946,365.695,116.74z"/><path style="fill:#FBDD00" d="M185.588,197.648c8.746-5.141,16.77-11.424,25.737-16.223c0.251,1.559,1.361,3.909-0.57,4.83 c-8.465,5.4-16.58,11.355-25.167,16.565C185.588,201.093,185.588,199.367,185.588,197.648z"/><g><path style="fill:#BE9D56" d="M297.64,342.129c-64.256,0-124.877-14.921-170.697-42.014 c-48.155-28.474-74.675-67.136-74.675-108.865s26.52-80.391,74.675-108.865c45.82-27.093,106.441-42.014,170.697-42.014 s124.877,14.921,170.697,42.014c48.155,28.474,74.675,67.136,74.675,108.865s-26.52,80.391-74.675,108.865 C422.518,327.208,361.896,342.129,297.64,342.129z M297.64,48.995c-62.735,0-121.797,14.494-166.308,40.813 c-45.424,26.86-70.441,62.886-70.441,101.442s25.016,74.583,70.441,101.442c44.511,26.319,103.573,40.813,166.308,40.813 s121.797-14.495,166.308-40.813c45.425-26.86,70.441-62.886,70.441-101.442s-25.016-74.582-70.441-101.442 C419.438,63.489,360.375,48.995,297.64,48.995z"/></g><g><path d="M459.895,265.234c-4.054-2.776-5.179-7.948-6.891-12.26c-16.436-43.724-32.696-87.563-48.866-131.34 c-2.076-0.084-4.153-0.068-6.229,0.015c-17.455,46.074-34.484,92.415-51.596,138.664c-1.833,5.119-7.355,7.104-12.344,7.499 c-0.053,1.559-0.084,3.111-0.099,4.677c12.648,0.099,25.311,0.167,37.959,0c0.046-1.612,0.03-3.217-0.061-4.822 c-3.506-0.099-7.568,0.494-10.42-2.031c-3.689-3.369-3.833-9.233-1.833-13.53c4.198-9.195,6.495-19.105,10.465-28.392 c16.915-0.38,33.852-0.16,50.775-0.106c3.445,10.283,7.431,20.391,11.142,30.582c1.042,3.727,0.677,8.26-2.023,11.226 c-2.86,2.86-7.195,2.13-10.853,2.236c-0.038,1.612-0.046,3.232-0.03,4.852c16.261,0.114,32.521,0.046,48.79,0.046 C469.729,267.067,463.097,267.235,459.895,265.234z M374.081,213.79c6.883-19.265,13.492-38.659,21.242-57.589 c7.803,19.037,14.116,38.659,21.965,57.68C402.884,213.805,388.479,213.988,374.081,213.79z"/><path d="M181.767,255.233c-0.03-17.234-0.053-34.476,0.015-51.718c0-1.726,0-3.453,0-5.172c0-10.917-0.043-21.833-0.07-32.749 c-0.027-11.12-0.944-22.86,0.32-33.901c0.029-0.251,12.74-0.203,13.92-0.179c4.612,0.092,9.45,0.339,13.689,2.304 c8.883,5.674,11.918,26.848,11.918,26.848h5.62l0.114-38.667l-105.748-0.266h-5.818l-0.008,38.933h5.704 c0,0,2.7-17.774,8.61-24.003c4.248-3.622,9.903-4.951,15.351-5.314c1.283-0.085,16.227,0.324,16.227,0.637 c-0.061,38.788-0.03,77.577-0.023,116.365c0.053,5.058,0.555,10.83-3.103,14.899c-3.461,4.404-9.537,4.54-14.656,4.464 c-0.015,1.59-0.03,4.822-0.03,4.822h55.323c0,0,0.076-2.997,0.099-4.487C191.32,269.326,181.463,264.071,181.767,255.233z"/><path d="M319.139,279.776c-4.328,0.388-8.678,0.578-13.021,0.548c-15.591-1.749-30.316-9.72-40.865-21.296 c-9.72-9.484-16.778-21.425-21.904-33.936c8.739,0.183,17.006-3.75,23.182-9.766c1.387-1.351,2.42-3.446,3.254-5.163 c0.865-1.782,1.644-3.565,2.139-5.492c1-3.894,1.029-8.043,0.022-11.939c-1.389-5.377-4.666-10.165-8.836-13.833 c-3.004-2.641-6.526-4.849-10.302-6.29c-3.998-1.526-7.834-1.772-12.048-1.772c-3.34,0-6.681,0-10.021,0c-2.927,0-5.853,0-8.78,0 h-19.208c0,0-0.114,3.981,0.221,5.54c5.506-0.297,11.02,3.689,10.8,9.553c0.068,24.094,0.099,48.204-0.015,72.306 c0.099,6.122-5.681,9.682-11.218,9.902c0.068,1.316,0.213,4.396,0.213,4.396h23.76h13.568c0,0-0.137-3.438-0.183-4.632 c-2.997-0.593-6.313-0.837-8.754-2.86c-2.343-2.35-2.959-5.849-2.875-9.043c0.091-8.67,0.008-17.333,0.03-26.003 c4.046,7.712,7.279,15.949,12.701,22.855c11.074,16.033,28.643,28.209,48.272,30.331c8.667,1.548,17.701,1.059,26.12-1.538 c0.35-0.108,0.698-0.245,1.025-0.411L319.139,279.776z M228.715,220.132c-0.341-0.313-0.533-0.832-0.529-1.702 c0.055-13.719,0.11-27.439,0.165-41.158c6.21-0.587,12.754-0.573,18.324,2.234c4.843,2.44,8.57,6.923,10.287,12.067 c1.716,5.144,1.45,10.886-0.537,15.932c-1.589,4.035-4.315,7.693-8.001,9.977c-3.323,2.059-7.215,2.886-11.074,3.137 c-1.975,0.128-3.956,0.108-5.932,0.03C230.248,220.603,229.278,220.649,228.715,220.132z"/><path d="M330.458,176.396c0.012-1.535,0.035-4.606,0.035-4.606h-41.274c0,0-0.005,2.779-0.007,4.148 c4.292,0.181,9.163,0.73,11.708,4.19c1.84,2.501,1.911,5.843,1.909,8.948c-0.017,21.971-0.033,43.942-0.05,65.913 c-0.002,3.239-0.098,6.756-2.129,9.279c-2.476,3.076-6.924,3.584-10.872,3.498c-0.539-0.012-0.091,4.864-0.091,4.864h3.159h10.124 h20.247h7.289c0,0-0.028-3.258-0.041-4.823c-4.288-0.115-9.281-0.608-11.58-4.23c-1.328-2.092-1.371-4.721-1.372-7.199 c-0.009-22.515-0.018-45.031-0.027-67.546c-0.001-3.204,0.101-6.704,2.174-9.147C322.175,176.721,326.571,176.445,330.458,176.396 z"/></g><g><path style="fill:#FFFFFF" d="M463.7,265.234c-4.054-2.776-5.179-7.948-6.891-12.26c-16.436-43.724-32.696-87.563-48.866-131.34 c-2.076-0.084-4.153-0.068-6.229,0.015c-17.455,46.074-34.484,92.415-51.596,138.664c-1.833,5.119-7.355,7.104-12.344,7.499 c-0.053,1.559-0.084,3.111-0.099,4.677c12.648,0.099,25.311,0.167,37.959,0c0.046-1.612,0.03-3.217-0.061-4.822 c-3.506-0.099-7.568,0.494-10.42-2.031c-3.689-3.369-3.833-9.233-1.833-13.53c4.198-9.195,6.495-19.105,10.465-28.392 c16.915-0.38,33.852-0.16,50.775-0.106c3.445,10.283,7.431,20.391,11.142,30.582c1.042,3.727,0.677,8.26-2.023,11.226 c-2.86,2.86-7.195,2.13-10.853,2.236c-0.038,1.612-0.046,3.232-0.03,4.852c16.261,0.114,32.521,0.046,48.79,0.046 C473.534,267.067,466.902,267.235,463.7,265.234z M377.887,213.79c6.883-19.265,13.492-38.659,21.242-57.589 c7.803,19.037,14.116,38.659,21.965,57.68C406.689,213.805,392.284,213.988,377.887,213.79z"/><path style="fill:#FFFFFF" d="M185.573,255.233c-0.03-17.234-0.053-34.476,0.015-51.718c0-1.726,0-3.453,0-5.172 c0-10.917-0.043-21.833-0.07-32.749c-0.027-11.12-0.944-22.86,0.32-33.901c0.029-0.251,12.74-0.203,13.92-0.179 c4.612,0.092,9.45,0.339,13.689,2.304c8.883,5.674,11.918,26.848,11.918,26.848h5.62l0.114-38.667l-105.748-0.266h-5.817 l-0.008,38.933h5.704c0,0,2.7-17.774,8.61-24.003c4.248-3.622,9.903-4.951,15.351-5.314c1.283-0.085,16.227,0.324,16.227,0.637 c-0.061,38.788-0.03,77.577-0.023,116.365c0.053,5.058,0.555,10.83-3.103,14.899c-3.461,4.404-9.537,4.54-14.656,4.464 c-0.015,1.59-0.03,4.822-0.03,4.822h55.323c0,0,0.076-2.997,0.099-4.487C195.125,269.326,185.268,264.071,185.573,255.233z"/><path style="fill:#FFFFFF" d="M322.944,279.776c-4.328,0.388-8.678,0.578-13.021,0.548c-15.591-1.749-30.316-9.72-40.865-21.296 c-9.72-9.484-16.778-21.425-21.904-33.936c8.739,0.183,17.006-3.75,23.182-9.766c1.387-1.351,2.42-3.446,3.254-5.163 c0.865-1.782,1.644-3.565,2.139-5.492c1-3.894,1.029-8.043,0.022-11.939c-1.389-5.377-4.666-10.165-8.836-13.833 c-3.004-2.641-6.526-4.849-10.302-6.29c-3.998-1.526-7.834-1.772-12.048-1.772c-3.34,0-6.681,0-10.021,0c-2.927,0-5.853,0-8.78,0 h-19.208c0,0-0.114,3.981,0.221,5.54c5.506-0.297,11.02,3.689,10.8,9.553c0.068,24.094,0.099,48.204-0.015,72.306 c0.099,6.122-5.681,9.682-11.218,9.902c0.068,1.316,0.213,4.396,0.213,4.396h23.76h13.568c0,0-0.137-3.438-0.183-4.632 c-2.997-0.593-6.313-0.837-8.754-2.86c-2.343-2.35-2.959-5.849-2.875-9.043c0.091-8.67,0.008-17.333,0.03-26.003 c4.046,7.712,7.279,15.949,12.701,22.855c11.074,16.033,28.643,28.209,48.272,30.331c8.667,1.548,17.701,1.059,26.12-1.538 c0.35-0.108,0.698-0.245,1.025-0.411L322.944,279.776z M232.52,220.132c-0.341-0.313-0.533-0.832-0.529-1.702 c0.055-13.719,0.11-27.439,0.165-41.158c6.21-0.587,12.754-0.573,18.324,2.234c4.843,2.44,8.57,6.923,10.287,12.067 c1.716,5.144,1.45,10.886-0.537,15.932c-1.589,4.035-4.315,7.693-8.001,9.977c-3.323,2.059-7.215,2.886-11.074,3.137 c-1.975,0.128-3.956,0.108-5.932,0.03C234.053,220.603,233.083,220.649,232.52,220.132z"/><path style="fill:#FFFFFF" d="M334.263,176.396c0.012-1.535,0.035-4.606,0.035-4.606h-41.274c0,0-0.005,2.779-0.007,4.148 c4.292,0.181,9.163,0.73,11.708,4.19c1.84,2.501,1.911,5.843,1.909,8.948c-0.017,21.971-0.033,43.942-0.05,65.913 c-0.002,3.239-0.098,6.756-2.129,9.279c-2.476,3.076-6.924,3.584-10.872,3.498c-0.539-0.012-0.091,4.864-0.091,4.864h3.159h10.124 h20.247h7.289c0,0-0.028-3.258-0.041-4.823c-4.288-0.115-9.281-0.608-11.58-4.23c-1.328-2.092-1.371-4.721-1.372-7.199 c-0.009-22.515-0.018-45.031-0.027-67.546c-0.001-3.204,0.1-6.704,2.174-9.147C325.98,176.721,330.376,176.445,334.263,176.396z"/></g></svg>