<svg xmlns="http://www.w3.org/2000/svg" xmlns:xlink="http://www.w3.org/1999/xlink" width="1920" zoomAndPan="magnify" viewBox="0 0 1440 809.999993" height="1080" preserveAspectRatio="xMidYMid meet" version="1.0"><defs><clipPath id="5a95d262eb"><path d="M 589.609375 435.375 L 1094.640625 435.375 L 1094.640625 809.957031 L 589.609375 809.957031 Z M 589.609375 435.375 " clip-rule="nonzero"/></clipPath><clipPath id="b85aa8e6fb"><path d="M 303.007812 401.292969 L 1136.992188 401.292969 L 1136.992188 471 L 303.007812 471 Z M 303.007812 401.292969 " clip-rule="nonzero"/></clipPath></defs><path fill="#40b93c" d="M 634.910156 546.058594 C 665.363281 517.429688 653.246094 468.851562 627.636719 435.933594 L 345.964844 435.933594 C 345.964844 588.636719 437.527344 719.875 568.714844 777.992188 C 546.15625 647.691406 609.566406 569.882812 634.910156 546.058594 " fill-opacity="1" fill-rule="nonzero"/><g clip-path="url(#5a95d262eb)"><path fill="#40b93c" d="M 919.546875 435.933594 C 893.867188 475.582031 848.265625 527.945312 775.648438 554.945312 C 667.703125 595.078125 557.113281 620.054688 598.53125 789.671875 C 636.632812 802.753906 677.464844 809.957031 720 809.957031 C 926.578125 809.957031 1094.035156 642.492188 1094.035156 435.933594 L 919.546875 435.933594 " fill-opacity="1" fill-rule="nonzero"/></g><path fill="#80cc28" d="M 653.324219 295.042969 C 629.800781 256.644531 609.183594 214.378906 605.769531 179.929688 C 605.769531 179.929688 632.347656 219.164062 666.226562 261.414062 C 681.253906 228.980469 704.660156 195.035156 739.882812 161.3125 C 704.042969 103.199219 636.832031 43.515625 514.035156 -0.707031 C 514.035156 -0.707031 448.140625 154.148438 514.632812 273.789062 L 514.625 273.789062 C 539.511719 329.289062 584.800781 371.910156 644.550781 404.40625 C 640.367188 374.496094 640.515625 336.65625 653.324219 295.042969 " fill-opacity="1" fill-rule="nonzero"/><path fill="#80cc28" d="M 925.96875 109.292969 C 587.695312 231.113281 671.03125 470.320312 671.03125 470.320312 C 729.773438 444.136719 834.234375 289.925781 834.234375 289.925781 C 827.949219 353.34375 763.457031 443.347656 729.6875 486.640625 C 728.910156 487.503906 686.933594 534.136719 662.039062 547.8125 C 606.683594 578.253906 608.28125 608.707031 605.671875 621.957031 C 605.59375 622.347656 605.523438 622.664062 605.460938 622.945312 C 608.019531 615.875 625.859375 579.503906 707.925781 551.902344 C 811.078125 517.226562 889.449219 463.902344 925.378906 383.785156 C 991.863281 264.140625 925.96875 109.292969 925.96875 109.292969 " fill-opacity="1" fill-rule="nonzero"/><g clip-path="url(#b85aa8e6fb)"><path fill="#40b93c" d="M 1102.410156 401.335938 L 939.136719 401.335938 C 931.21875 417.648438 916.664062 443.625 893.855469 470.519531 L 1102.410156 470.519531 C 1121.515625 470.519531 1136.992188 455.027344 1136.992188 435.933594 C 1136.992188 416.824219 1121.515625 401.335938 1102.410156 401.335938 Z M 646.84375 470.519531 L 337.601562 470.519531 C 318.488281 470.519531 303.007812 455.027344 303.007812 435.933594 C 303.007812 416.824219 318.488281 401.335938 337.601562 401.335938 L 576.226562 401.335938 C 594.710938 408.730469 613.109375 418.644531 623.960938 431.339844 C 633.664062 442.691406 641.703125 456.320312 646.84375 470.519531 " fill-opacity="1" fill-rule="nonzero"/></g></svg>