<svg xmlns="http://www.w3.org/2000/svg" xmlns:xlink="http://www.w3.org/1999/xlink" width="500" zoomAndPan="magnify" viewBox="0 0 375 374.999991" height="500" preserveAspectRatio="xMidYMid meet" version="1.0"><defs><g/><clipPath id="0472890eff"><path d="M 98 184 L 246.507812 184 L 246.507812 294.082031 L 98 294.082031 Z M 98 184 " clip-rule="nonzero"/></clipPath><clipPath id="1b8cd8d053"><path d="M 67 55.589844 L 143 55.589844 L 143 175 L 67 175 Z M 67 55.589844 " clip-rule="nonzero"/></clipPath><clipPath id="9867e6a724"><path d="M 13.714844 173.859375 L 258.960938 173.859375 L 258.960938 194.367188 L 13.714844 194.367188 Z M 13.714844 173.859375 " clip-rule="nonzero"/></clipPath></defs><rect x="-37.5" width="450" fill="#ffffff" y="-37.499999" height="449.999989" fill-opacity="1"/><rect x="-37.5" width="450" fill="#ffffff" y="-37.499999" height="449.999989" fill-opacity="1"/><path fill="#40b93c" d="M 111.316406 216.445312 C 120.273438 208.023438 116.710938 193.734375 109.175781 184.050781 L 26.347656 184.050781 C 26.347656 228.972656 53.273438 267.578125 91.851562 284.675781 C 85.21875 246.34375 103.863281 223.457031 111.316406 216.445312 " fill-opacity="1" fill-rule="nonzero"/><g clip-path="url(#0472890eff)"><path fill="#40b93c" d="M 195.019531 184.050781 C 187.464844 195.714844 174.058594 211.117188 152.703125 219.0625 C 120.960938 230.867188 88.441406 238.214844 100.617188 288.113281 C 111.824219 291.960938 123.832031 294.078125 136.339844 294.078125 C 197.085938 294.078125 246.328125 244.816406 246.328125 184.050781 L 195.019531 184.050781 " fill-opacity="1" fill-rule="nonzero"/></g><g clip-path="url(#1b8cd8d053)"><path fill="#80cc28" d="M 116.730469 142.605469 C 109.8125 131.308594 103.75 118.875 102.746094 108.742188 C 102.746094 108.742188 110.5625 120.28125 120.527344 132.710938 C 124.945312 123.171875 131.828125 113.183594 142.1875 103.261719 C 131.648438 86.167969 111.882812 68.609375 75.773438 55.601562 C 75.773438 55.601562 56.394531 101.15625 75.949219 136.351562 L 75.945312 136.351562 C 83.265625 152.679688 96.582031 165.214844 114.152344 174.777344 C 112.921875 165.976562 112.964844 154.847656 116.730469 142.605469 " fill-opacity="1" fill-rule="nonzero"/></g><path fill="#80cc28" d="M 196.90625 87.960938 C 97.433594 123.796875 121.9375 194.167969 121.9375 194.167969 C 139.214844 186.464844 169.929688 141.097656 169.929688 141.097656 C 168.082031 159.753906 149.117188 186.230469 139.1875 198.96875 C 138.957031 199.222656 126.613281 212.941406 119.292969 216.960938 C 103.015625 225.917969 103.484375 234.878906 102.71875 238.773438 C 102.695312 238.890625 102.675781 238.984375 102.65625 239.066406 C 103.410156 236.984375 108.65625 226.285156 132.789062 218.167969 C 163.121094 207.964844 186.167969 192.277344 196.734375 168.710938 C 216.285156 133.511719 196.90625 87.960938 196.90625 87.960938 " fill-opacity="1" fill-rule="nonzero"/><g clip-path="url(#9867e6a724)"><path fill="#40b93c" d="M 248.792969 173.875 L 200.78125 173.875 C 198.449219 178.671875 194.171875 186.3125 187.464844 194.226562 L 248.792969 194.226562 C 254.410156 194.226562 258.960938 189.667969 258.960938 184.050781 C 258.960938 178.429688 254.410156 173.875 248.792969 173.875 Z M 114.828125 194.226562 L 23.886719 194.226562 C 18.269531 194.226562 13.714844 189.667969 13.714844 184.050781 C 13.714844 178.429688 18.269531 173.875 23.886719 173.875 L 94.058594 173.875 C 99.496094 176.046875 104.90625 178.964844 108.097656 182.699219 C 110.949219 186.039062 113.3125 190.046875 114.828125 194.226562 " fill-opacity="1" fill-rule="nonzero"/></g><g fill="#123411" fill-opacity="1"><g transform="translate(8.051391, 202.526286)"><g><path d="M 18.894531 14.585938 L 18.027344 10.859375 L 9.121094 8.226562 L 15.9375 1.90625 L 15.074219 -1.800781 L 0.378906 1.625 L 1.117188 4.796875 L 11.039062 2.484375 L 5.273438 7.820312 L 5.84375 10.269531 L 13.375 12.507812 L 3.453125 14.820312 L 4.199219 18.011719 Z M 18.894531 14.585938 "/></g></g></g><g fill="#123411" fill-opacity="1"><g transform="translate(13.117939, 222.5435)"><g><path d="M 14.957031 -0.0078125 L 16.082031 -2.453125 L 13.6875 -3.679688 L 12.546875 -1.230469 Z M 1.464844 4.234375 L 11.652344 0.710938 L 10.644531 -2.203125 L 0.457031 1.316406 Z M 1.464844 4.234375 "/></g></g></g><g fill="#123411" fill-opacity="1"><g transform="translate(15.042457, 228.506973)"><g><path d="M 13.355469 3.039062 C 12.738281 1.625 11.59375 0.738281 10.140625 0.472656 L 11.671875 -0.191406 L 10.449219 -3.003906 L 0.566406 1.296875 L 1.796875 4.128906 L 6.429688 2.113281 C 8.445312 1.234375 10.050781 1.59375 10.667969 3.007812 C 11.191406 4.210938 10.675781 5.355469 9.378906 5.921875 L 3.660156 8.410156 L 4.898438 11.257812 L 11.003906 8.601562 C 13.40625 7.558594 14.351562 5.324219 13.355469 3.039062 Z M 13.355469 3.039062 "/></g></g></g><g fill="#123411" fill-opacity="1"><g transform="translate(20.755428, 241.233452)"><g><path d="M 14.777344 -2.320312 L 15.507812 -4.910156 L 12.953125 -5.753906 L 12.203125 -3.152344 Z M 2.101562 3.957031 L 11.621094 -1.097656 L 10.175781 -3.824219 L 0.652344 1.230469 Z M 2.101562 3.957031 "/></g></g></g><g fill="#123411" fill-opacity="1"><g transform="translate(23.473338, 247.043937)"><g><path d="M 17.355469 6.074219 C 16.472656 4.757812 15.175781 4.152344 13.59375 4.296875 C 14.382812 3.082031 14.390625 1.652344 13.507812 0.335938 C 12.71875 -0.84375 11.527344 -1.441406 10.132812 -1.398438 L 11.449219 -2.28125 L 9.742188 -4.828125 L 0.789062 1.175781 L 2.507812 3.738281 L 7.125 0.644531 C 8.703125 -0.414062 10.070312 -0.390625 10.789062 0.679688 C 11.421875 1.628906 11.109375 2.679688 9.984375 3.433594 L 4.683594 6.988281 L 6.414062 9.566406 L 11.03125 6.472656 C 12.609375 5.414062 13.964844 5.421875 14.695312 6.507812 C 15.320312 7.441406 15.003906 8.488281 13.882812 9.242188 L 8.578125 12.796875 L 10.308594 15.378906 L 16.085938 11.507812 C 18.140625 10.128906 18.636719 7.988281 17.355469 6.074219 Z M 17.355469 6.074219 "/></g></g></g><g fill="#123411" fill-opacity="1"><g transform="translate(35.089665, 263.693466)"><g><path d="M 13.996094 -5.277344 L 14.183594 -7.960938 L 11.511719 -8.269531 L 11.308594 -5.574219 Z M 2.863281 3.445312 L 11.15625 -3.441406 L 9.183594 -5.8125 L 0.890625 1.074219 Z M 2.863281 3.445312 "/></g></g></g><g fill="#123411" fill-opacity="1"><g transform="translate(38.9993, 268.549156)"><g><path d="M 7.679688 8.007812 L 9.449219 6.3125 L 5.367188 2.054688 L 13.710938 1.960938 L 15.328125 0.410156 L 8.539062 -6.667969 L 6.769531 -4.96875 L 10.574219 -1.003906 L 2.246094 -0.894531 L 0.628906 0.65625 Z M 7.679688 8.007812 "/></g></g></g><g fill="#123411" fill-opacity="1"><g transform="translate(47.639162, 277.563394)"><g><path d="M 12.828125 3.882812 C 15.101562 1.214844 14.847656 -1.839844 12.160156 -4.128906 C 9.472656 -6.417969 6.417969 -6.191406 4.15625 -3.539062 C 1.839844 -0.820312 2.265625 2.265625 5.304688 4.855469 C 6.527344 5.898438 7.917969 6.640625 9.234375 6.957031 L 10.6875 5.253906 C 9.433594 4.960938 8.164062 4.269531 7.105469 3.363281 C 5.480469 1.976562 5.105469 0.6875 5.9375 -0.742188 L 12.210938 4.605469 Z M 10.734375 -2.457031 C 11.859375 -1.496094 11.992188 -0.21875 11.136719 1.109375 L 7.148438 -2.292969 C 8.324219 -3.34375 9.609375 -3.417969 10.734375 -2.457031 Z M 10.734375 -2.457031 "/></g></g></g><g fill="#123411" fill-opacity="1"><g transform="translate(58.02519, 286.229509)"><g/></g></g><g fill="#123411" fill-opacity="1"><g transform="translate(63.384718, 290.760466)"><g><path d="M 17.140625 5.472656 L 17.105469 5.453125 L 19.75 -6.320312 L 16.273438 -8.242188 L 7.707031 0.253906 L 7.671875 0.234375 L 10.746094 -11.300781 L 7.765625 -12.949219 L 4.085938 2.261719 L 7.898438 4.367188 L 16.070312 -3.765625 L 13.519531 7.480469 L 17.328125 9.585938 L 28.277344 -1.601562 L 25.28125 -3.257812 Z M 17.140625 5.472656 "/></g></g></g><g fill="#123411" fill-opacity="1"><g transform="translate(85.674257, 302.53949)"><g><path d="M 9.507812 -8.238281 C 8.082031 -8.765625 6.664062 -9.023438 5.261719 -9.003906 L 4.457031 -6.84375 C 5.753906 -6.925781 7.054688 -6.734375 8.285156 -6.277344 C 10.1875 -5.574219 10.949219 -4.589844 10.507812 -3.402344 L 10.300781 -2.847656 C 9.503906 -3.550781 8.492188 -4.171875 7.382812 -4.585938 C 4.671875 -5.59375 2.683594 -4.976562 1.894531 -2.859375 C 1.117188 -0.757812 2.191406 1.085938 4.707031 2.019531 C 6.3125 2.613281 7.730469 2.554688 8.765625 1.835938 L 8.300781 3.082031 L 10.996094 4.085938 L 13.335938 -2.214844 C 14.308594 -4.832031 12.976562 -6.949219 9.507812 -8.238281 Z M 6.265625 0.433594 C 5.054688 -0.015625 4.523438 -0.824219 4.851562 -1.714844 C 5.191406 -2.625 6.203125 -2.859375 7.550781 -2.359375 C 8.363281 -2.058594 9.089844 -1.585938 9.59375 -0.945312 L 9.550781 -0.828125 C 9.058594 0.5 7.75 0.984375 6.265625 0.433594 Z M 6.265625 0.433594 "/></g></g></g><g fill="#123411" fill-opacity="1"><g transform="translate(98.34826, 307.171137)"><g><path d="M 4.753906 1.527344 C 7.898438 2.363281 9.847656 1.703125 10.398438 -0.359375 C 10.808594 -1.914062 10.128906 -3.210938 8.296875 -4.308594 L 6.679688 -5.289062 C 6.085938 -5.6875 5.855469 -6.054688 5.957031 -6.441406 C 6.109375 -7.011719 6.875 -7.179688 8.039062 -6.871094 C 9.039062 -6.605469 10.003906 -6.109375 10.980469 -5.34375 L 11.597656 -7.671875 C 10.585938 -8.382812 9.578125 -8.867188 8.351562 -9.195312 C 5.410156 -9.976562 3.484375 -9.308594 2.96875 -7.367188 C 2.566406 -5.855469 3.242188 -4.539062 5.019531 -3.496094 L 6.675781 -2.488281 C 7.277344 -2.109375 7.519531 -1.714844 7.402344 -1.265625 C 7.226562 -0.613281 6.414062 -0.4375 5.046875 -0.800781 C 3.882812 -1.109375 2.820312 -1.632812 1.882812 -2.386719 L 1.261719 -0.0585938 C 2.214844 0.632812 3.40625 1.167969 4.753906 1.527344 Z M 4.753906 1.527344 "/></g></g></g><g fill="#123411" fill-opacity="1"><g transform="translate(109.317714, 310.050922)"><g><path d="M 10.902344 -9.003906 L 7.324219 -9.644531 L 7.855469 -12.640625 L 4.796875 -13.183594 L 4.265625 -10.1875 L 2.289062 -10.539062 L 1.855469 -8.128906 L 3.832031 -7.773438 L 3.011719 -3.15625 C 2.574219 -0.699219 3.679688 0.914062 6.113281 1.347656 C 7.007812 1.507812 7.878906 1.449219 8.953125 1.1875 L 9.355469 -1.058594 C 8.609375 -0.847656 8 -0.804688 7.460938 -0.902344 C 6.378906 -1.09375 5.921875 -1.777344 6.117188 -2.878906 L 6.894531 -7.230469 L 10.472656 -6.589844 Z M 10.902344 -9.003906 "/></g></g></g><g fill="#123411" fill-opacity="1"><g transform="translate(119.628936, 311.942445)"><g><path d="M 12.6875 -4.320312 C 12.980469 -7.816406 10.992188 -10.144531 7.476562 -10.441406 C 3.957031 -10.738281 1.609375 -8.773438 1.316406 -5.296875 C 1.015625 -1.738281 3.160156 0.519531 7.140625 0.855469 C 8.738281 0.992188 10.304688 0.78125 11.558594 0.273438 L 11.746094 -1.957031 C 10.558594 -1.464844 9.121094 -1.289062 7.734375 -1.40625 C 5.605469 -1.585938 4.550781 -2.417969 4.394531 -4.0625 L 12.605469 -3.371094 Z M 7.292969 -8.25 C 8.765625 -8.128906 9.617188 -7.164062 9.695312 -5.589844 L 4.472656 -6.027344 C 4.816406 -7.570312 5.816406 -8.375 7.292969 -8.25 Z M 7.292969 -8.25 "/></g></g></g><g fill="#123411" fill-opacity="1"><g transform="translate(133.092467, 312.915738)"><g><path d="M 2.867188 2.359375 L 4.308594 -1.492188 L 1.667969 -1.523438 L 0.691406 2.332031 Z M 2.867188 2.359375 "/></g></g></g><g fill="#123411" fill-opacity="1"><g transform="translate(138.324708, 312.986353)"><g/></g></g><g fill="#123411" fill-opacity="1"><g transform="translate(145.224879, 313.090267)"><g><path d="M 16.214844 -17.515625 L 12.429688 -16.984375 L 9.007812 -8.351562 L 3.324219 -15.703125 L -0.445312 -15.175781 L 1.652344 -0.230469 L 4.875 -0.683594 L 3.460938 -10.773438 L 8.261719 -4.554688 L 10.75 -4.902344 L 13.652344 -12.203125 L 15.070312 -2.113281 L 18.3125 -2.570312 Z M 16.214844 -17.515625 "/></g></g></g><g fill="#123411" fill-opacity="1"><g transform="translate(165.779896, 309.922661)"><g><path d="M 2.859375 -12.25 C 1.394531 -11.839844 0.0976562 -11.21875 -1.027344 -10.375 L -0.410156 -8.15625 C 0.589844 -8.984375 1.757812 -9.59375 3.019531 -9.945312 C 4.972656 -10.492188 6.167969 -10.144531 6.507812 -8.921875 L 6.667969 -8.351562 C 5.609375 -8.453125 4.425781 -8.363281 3.285156 -8.046875 C 0.496094 -7.269531 -0.75 -5.605469 -0.144531 -3.425781 C 0.457031 -1.269531 2.410156 -0.410156 4.996094 -1.128906 C 6.644531 -1.589844 7.757812 -2.46875 8.171875 -3.660156 L 8.53125 -2.378906 L 11.300781 -3.148438 L 9.496094 -9.625 C 8.746094 -12.3125 6.421875 -13.242188 2.859375 -12.25 Z M 5.324219 -3.328125 C 4.082031 -2.980469 3.175781 -3.320312 2.921875 -4.238281 C 2.660156 -5.171875 3.34375 -5.957031 4.726562 -6.34375 C 5.5625 -6.574219 6.425781 -6.617188 7.210938 -6.398438 L 7.246094 -6.277344 C 7.625 -4.910156 6.851562 -3.753906 5.324219 -3.328125 Z M 5.324219 -3.328125 "/></g></g></g><g fill="#123411" fill-opacity="1"><g transform="translate(178.809865, 306.258375)"><g><path d="M 3.816406 -1.5 L 4.632812 -5.660156 L 4.671875 -5.675781 L 8.121094 -3.195312 L 11.445312 -4.503906 L 5.867188 -8.238281 L 7.339844 -14.472656 L 3.996094 -13.15625 L 3.246094 -9.296875 L 3.207031 -9.28125 L 0.0429688 -11.601562 L -3.320312 -10.277344 L 2.03125 -6.726562 L 0.472656 -0.1875 Z M 3.816406 -1.5 "/></g></g></g><g fill="#123411" fill-opacity="1"><g transform="translate(191.032936, 301.291716)"><g><path d="M -1.75 -14.855469 L -4.308594 -15.6875 L -5.25 -13.164062 L -2.683594 -12.316406 Z M 4.035156 -1.949219 L -0.648438 -11.65625 L -3.429688 -10.3125 L 1.257812 -0.605469 Z M 4.035156 -1.949219 "/></g></g></g><g fill="#123411" fill-opacity="1"><g transform="translate(196.950096, 298.806014)"><g><path d="M 6.738281 -17.109375 C 5.386719 -16.277344 4.730469 -15.003906 4.816406 -13.417969 C 3.632812 -14.253906 2.203125 -14.316406 0.851562 -13.484375 C -0.351562 -12.742188 -1 -11.574219 -1.007812 -10.179688 L -1.839844 -11.527344 L -4.449219 -9.921875 L 1.207031 -0.742188 L 3.832031 -2.359375 L 0.917969 -7.09375 C -0.0820312 -8.714844 -0.00390625 -10.078125 1.09375 -10.753906 C 2.066406 -11.351562 3.105469 -11 3.8125 -9.847656 L 7.160156 -4.410156 L 9.808594 -6.042969 L 6.890625 -10.773438 C 5.894531 -12.394531 5.953125 -13.746094 7.070312 -14.433594 C 8.023438 -15.019531 9.0625 -14.667969 9.769531 -13.515625 L 13.117188 -8.082031 L 15.761719 -9.710938 L 12.117188 -15.632812 C 10.820312 -17.738281 8.699219 -18.316406 6.738281 -17.109375 Z M 6.738281 -17.109375 "/></g></g></g><g fill="#123411" fill-opacity="1"><g transform="translate(214.02754, 287.831833)"><g><path d="M -4.734375 -14.1875 L -7.410156 -14.480469 L -7.820312 -11.820312 L -5.132812 -11.511719 Z M 3.554688 -2.726562 L -3.007812 -11.277344 L -5.457031 -9.398438 L 1.105469 -0.847656 Z M 3.554688 -2.726562 "/></g></g></g><g fill="#123411" fill-opacity="1"><g transform="translate(219.031596, 284.113448)"><g><path d="M 8.296875 -7.367188 L 6.671875 -9.199219 L 2.261719 -5.285156 L 2.488281 -13.625 L 1 -15.300781 L -6.332031 -8.789062 L -4.707031 -6.957031 L -0.597656 -10.605469 L -0.808594 -2.277344 L 0.679688 -0.601562 Z M 8.296875 -7.367188 "/></g></g></g><g fill="#123411" fill-opacity="1"><g transform="translate(228.373657, 275.828947)"><g><path d="M 4.375 -12.667969 C 1.792969 -15.046875 -1.265625 -14.90625 -3.660156 -12.308594 C -6.050781 -9.714844 -5.941406 -6.652344 -3.375 -4.289062 C -0.75 -1.867188 2.347656 -2.175781 5.054688 -5.113281 C 6.144531 -6.292969 6.941406 -7.65625 7.308594 -8.957031 L 5.660156 -10.476562 C 5.320312 -9.238281 4.578125 -7.996094 3.632812 -6.96875 C 2.1875 -5.398438 0.882812 -5.078125 -0.511719 -5.960938 L 5.074219 -12.023438 Z M -2.042969 -10.820312 C -1.039062 -11.910156 0.242188 -11.992188 1.535156 -11.085938 L -2.015625 -7.230469 C -3.023438 -8.445312 -3.046875 -9.734375 -2.042969 -10.820312 Z M -2.042969 -10.820312 "/></g></g></g><g fill="#123411" fill-opacity="1"><g transform="translate(237.429801, 265.780819)"><g/></g></g><g fill="#123411" fill-opacity="1"><g transform="translate(241.739121, 260.565478)"><g><path d="M -4.972656 -19.863281 L -12.167969 -8.960938 L -9.855469 -7.4375 L -7.15625 -11.53125 L 3.128906 -4.746094 L 4.921875 -7.460938 L -5.363281 -14.246094 L -2.664062 -18.339844 Z M -4.972656 -19.863281 "/></g></g></g><g fill="#123411" fill-opacity="1"><g transform="translate(250.031847, 247.852889)"><g><path d="M -7.070312 -10.40625 C -7.761719 -9.050781 -8.183594 -7.675781 -8.328125 -6.277344 L -6.277344 -5.226562 C -6.207031 -6.523438 -5.863281 -7.792969 -5.269531 -8.960938 C -4.34375 -10.769531 -3.28125 -11.410156 -2.152344 -10.832031 L -1.625 -10.5625 C -2.414062 -9.851562 -3.152344 -8.921875 -3.691406 -7.871094 C -5.007812 -5.292969 -4.628906 -3.246094 -2.617188 -2.214844 C -0.621094 -1.195312 1.332031 -2.046875 2.554688 -4.4375 C 3.335938 -5.960938 3.441406 -7.378906 2.847656 -8.492188 L 4.03125 -7.882812 L 5.339844 -10.445312 L -0.644531 -13.503906 C -3.125 -14.773438 -5.386719 -13.699219 -7.070312 -10.40625 Z M 1.164062 -6.171875 C 0.574219 -5.023438 -0.289062 -4.585938 -1.136719 -5.019531 C -2 -5.460938 -2.113281 -6.492188 -1.460938 -7.773438 C -1.066406 -8.546875 -0.511719 -9.210938 0.183594 -9.640625 L 0.296875 -9.582031 C 1.554688 -8.9375 1.882812 -7.582031 1.164062 -6.171875 Z M 1.164062 -6.171875 "/></g></g></g><g fill="#123411" fill-opacity="1"><g transform="translate(256.108696, 235.802573)"><g><path d="M 2.074219 -4.542969 C 3.273438 -7.570312 2.839844 -9.582031 0.855469 -10.367188 C -0.636719 -10.960938 -2.003906 -10.433594 -3.308594 -8.746094 L -4.472656 -7.25 C -4.9375 -6.707031 -5.328125 -6.519531 -5.703125 -6.667969 C -6.25 -6.886719 -6.328125 -7.667969 -5.886719 -8.789062 C -5.503906 -9.75 -4.898438 -10.648438 -4.027344 -11.527344 L -6.265625 -12.417969 C -7.085938 -11.492188 -7.6875 -10.546875 -8.15625 -9.367188 C -9.277344 -6.539062 -8.839844 -4.546875 -6.972656 -3.808594 C -5.515625 -3.230469 -4.128906 -3.75 -2.886719 -5.394531 L -1.691406 -6.921875 C -1.246094 -7.472656 -0.828125 -7.671875 -0.394531 -7.5 C 0.234375 -7.25 0.316406 -6.421875 -0.207031 -5.105469 C -0.648438 -3.984375 -1.292969 -2.992188 -2.148438 -2.148438 L 0.0898438 -1.261719 C 0.886719 -2.125 1.558594 -3.246094 2.074219 -4.542969 Z M 2.074219 -4.542969 "/></g></g></g><g fill="#123411" fill-opacity="1"><g transform="translate(260.257986, 225.253357)"><g><path d="M -7.667969 -11.878906 L -8.722656 -8.398438 L -11.632812 -9.28125 L -12.535156 -6.304688 L -9.621094 -5.425781 L -10.203125 -3.503906 L -7.855469 -2.792969 L -7.273438 -4.714844 L -2.78125 -3.359375 C -0.394531 -2.636719 1.335938 -3.546875 2.054688 -5.914062 C 2.316406 -6.785156 2.359375 -7.65625 2.226562 -8.753906 L 0.0429688 -9.414062 C 0.164062 -8.648438 0.132812 -8.039062 -0.0234375 -7.515625 C -0.34375 -6.460938 -1.074219 -6.085938 -2.144531 -6.410156 L -6.375 -7.691406 L -5.324219 -11.167969 Z M -7.667969 -11.878906 "/></g></g></g><g fill="#123411" fill-opacity="1"><g transform="translate(263.337321, 215.229431)"><g><path d="M -2.808594 -13.105469 C -6.246094 -13.804688 -8.792969 -12.101562 -9.496094 -8.644531 C -10.203125 -5.1875 -8.523438 -2.621094 -5.109375 -1.925781 C -1.609375 -1.210938 0.886719 -3.078125 1.683594 -6.992188 C 2.003906 -8.5625 1.980469 -10.144531 1.621094 -11.445312 L -0.574219 -11.894531 C -0.222656 -10.65625 -0.214844 -9.210938 -0.492188 -7.84375 C -0.917969 -5.753906 -1.867188 -4.800781 -3.523438 -4.835938 L -1.875 -12.914062 Z M -7.34375 -8.207031 C -7.046875 -9.65625 -5.992188 -10.390625 -4.417969 -10.285156 L -5.464844 -5.148438 C -6.953125 -5.667969 -7.640625 -6.753906 -7.34375 -8.207031 Z M -7.34375 -8.207031 "/></g></g></g><g fill="#226020" fill-opacity="1"><g transform="translate(208.751621, 124.139997)"><g><path d="M 3.105469 0 L 11.503906 0 L 11.503906 -14.90625 L 17.175781 -6.96875 L 22.675781 -6.96875 L 28.300781 -14.863281 L 28.300781 0 L 36.699219 0 L 36.699219 -29.394531 L 29.8125 -29.394531 L 19.902344 -15.410156 L 10.035156 -29.394531 L 3.105469 -29.394531 Z M 3.105469 0 "/></g></g></g><g fill="#226020" fill-opacity="1"><g transform="translate(248.558469, 124.139997)"><g><path d="M 10.917969 0 L 19.359375 0 L 19.359375 -10.246094 L 30.066406 -29.394531 L 20.449219 -29.394531 L 15.117188 -18.855469 L 12.847656 -23.304688 L 9.742188 -29.394531 L 0.210938 -29.394531 L 10.917969 -10.203125 Z M 10.917969 0 "/></g></g></g><g fill="#226020" fill-opacity="1"><g transform="translate(208.751621, 163.973631)"><g><path d="M 3.105469 0 L 23.726562 0 L 23.726562 -6.929688 L 11.503906 -6.929688 L 11.503906 -11.464844 L 22.128906 -11.464844 L 22.128906 -18.265625 L 11.503906 -18.265625 L 11.503906 -22.550781 L 23.261719 -22.550781 L 23.261719 -29.394531 L 3.105469 -29.394531 Z M 3.105469 0 "/></g></g></g><g fill="#226020" fill-opacity="1"><g transform="translate(234.365724, 163.973631)"><g><path d="M 16.839844 0.628906 C 24.941406 0.628906 31.074219 -4.28125 32.332031 -11.757812 L 23.726562 -11.757812 C 22.675781 -8.984375 20.199219 -7.222656 17.007812 -7.222656 C 12.890625 -7.222656 10.035156 -10.289062 10.035156 -14.695312 C 10.035156 -19.148438 12.933594 -22.171875 17.089844 -22.171875 C 20.15625 -22.171875 22.71875 -20.449219 23.597656 -17.804688 L 32.164062 -17.804688 C 30.652344 -25.238281 24.605469 -30.023438 16.753906 -30.023438 C 7.683594 -30.023438 1.425781 -23.765625 1.425781 -14.695312 C 1.425781 -5.625 7.683594 0.628906 16.839844 0.628906 Z M 16.839844 0.628906 "/></g></g></g><g fill="#226020" fill-opacity="1"><g transform="translate(268.041972, 163.973631)"><g><path d="M 17.425781 0.628906 C 26.789062 0.628906 33.425781 -5.710938 33.425781 -14.695312 C 33.425781 -23.683594 26.789062 -30.023438 17.425781 -30.023438 C 8.0625 -30.023438 1.425781 -23.683594 1.425781 -14.695312 C 1.425781 -5.710938 8.0625 0.628906 17.425781 0.628906 Z M 10.035156 -14.695312 C 10.035156 -19.105469 13.101562 -22.171875 17.425781 -22.171875 C 21.792969 -22.171875 24.816406 -19.105469 24.816406 -14.695312 C 24.816406 -10.289062 21.792969 -7.222656 17.425781 -7.222656 C 13.101562 -7.222656 10.035156 -10.289062 10.035156 -14.695312 Z M 10.035156 -14.695312 "/></g></g></g><g fill="#226020" fill-opacity="1"><g transform="translate(302.935938, 163.973631)"><g><path d="M 3.105469 0 L 23.597656 0 L 23.597656 -7.851562 L 11.589844 -7.851562 L 11.589844 -29.394531 L 3.105469 -29.394531 Z M 3.105469 0 "/></g></g></g><g fill="#226020" fill-opacity="1"><g transform="translate(327.584268, 163.973631)"><g><path d="M 17.425781 0.628906 C 26.789062 0.628906 33.425781 -5.710938 33.425781 -14.695312 C 33.425781 -23.683594 26.789062 -30.023438 17.425781 -30.023438 C 8.0625 -30.023438 1.425781 -23.683594 1.425781 -14.695312 C 1.425781 -5.710938 8.0625 0.628906 17.425781 0.628906 Z M 10.035156 -14.695312 C 10.035156 -19.105469 13.101562 -22.171875 17.425781 -22.171875 C 21.792969 -22.171875 24.816406 -19.105469 24.816406 -14.695312 C 24.816406 -10.289062 21.792969 -7.222656 17.425781 -7.222656 C 13.101562 -7.222656 10.035156 -10.289062 10.035156 -14.695312 Z M 10.035156 -14.695312 "/></g></g></g></svg>